<svg width="148" height="32" viewBox="0 0 148 32" fill="none" xmlns="http://www.w3.org/2000/svg">
<mask id="path-1-inside-1_1247_622" fill="white">
<path d="M33.5481 14.3857H29.9529L29.1366 17H27.7568L31.1772 7H32.3238L35.7636 17H34.3838L33.5481 14.3857ZM30.3027 13.3071H33.1983L31.7408 8.75503L30.3027 13.3071Z"/>
</mask>
<path d="M33.5481 14.3857H29.9529L29.1366 17H27.7568L31.1772 7H32.3238L35.7636 17H34.3838L33.5481 14.3857ZM30.3027 13.3071H33.1983L31.7408 8.75503L30.3027 13.3071Z" fill="white"/>
<path d="M33.5481 14.3857L35.4531 13.7768L35.0085 12.3857H33.5481V14.3857ZM29.9529 14.3857V12.3857H28.4821L28.0437 13.7897L29.9529 14.3857ZM29.1366 17V19H30.6074L31.0457 17.5961L29.1366 17ZM27.7568 17L25.8645 16.3527L24.959 19H27.7568V17ZM31.1772 7V5H29.7475L29.2848 6.35274L31.1772 7ZM32.3238 7L34.215 6.34945L33.7508 5H32.3238V7ZM35.7636 17V19H38.5665L37.6548 16.3495L35.7636 17ZM34.3838 17L32.4787 17.6089L32.9234 19H34.3838V17ZM30.3027 13.3071L28.3956 12.7046L27.5734 15.3071H30.3027V13.3071ZM33.1983 13.3071V15.3071H35.9387L35.103 12.6973L33.1983 13.3071ZM31.7408 8.75503L33.6455 8.14515L31.728 2.15639L29.8337 8.15254L31.7408 8.75503ZM33.5481 12.3857H29.9529V16.3857H33.5481V12.3857ZM28.0437 13.7897L27.2275 16.4039L31.0457 17.5961L31.862 14.9818L28.0437 13.7897ZM29.1366 15H27.7568V19H29.1366V15ZM29.6492 17.6473L33.0696 7.64726L29.2848 6.35274L25.8645 16.3527L29.6492 17.6473ZM31.1772 9H32.3238V5H31.1772V9ZM30.4325 7.65055L33.8723 17.6505L37.6548 16.3495L34.215 6.34945L30.4325 7.65055ZM35.7636 15H34.3838V19H35.7636V15ZM36.2888 16.3911L35.4531 13.7768L31.6431 14.9947L32.4787 17.6089L36.2888 16.3911ZM30.3027 15.3071H33.1983V11.3071H30.3027V15.3071ZM35.103 12.6973L33.6455 8.14515L29.836 9.3649L31.2936 13.917L35.103 12.6973ZM29.8337 8.15254L28.3956 12.7046L32.2098 13.9096L33.6479 9.35751L29.8337 8.15254Z" fill="white" mask="url(#path-1-inside-1_1247_622)"/>
<mask id="path-3-inside-2_1247_622" fill="white">
<path d="M43.2729 12.5759H40.303V17H39.1953V7H43.7706V8.07861H40.303V11.5155H43.2729V12.5759Z"/>
</mask>
<path d="M43.2729 12.5759H40.303V17H39.1953V7H43.7706V8.07861H40.303V11.5155H43.2729V12.5759Z" fill="white"/>
<path d="M43.2729 12.5759V14.5759H45.2729V12.5759H43.2729ZM40.303 12.5759V10.5759H38.303V12.5759H40.303ZM40.303 17V19H42.303V17H40.303ZM39.1953 17H37.1953V19H39.1953V17ZM39.1953 7V5H37.1953V7H39.1953ZM43.7706 7H45.7706V5H43.7706V7ZM43.7706 8.07861V10.0786H45.7706V8.07861H43.7706ZM40.303 8.07861V6.07861H38.303V8.07861H40.303ZM40.303 11.5155H38.303V13.5155H40.303V11.5155ZM43.2729 11.5155H45.2729V9.51554H43.2729V11.5155ZM43.2729 10.5759H40.303V14.5759H43.2729V10.5759ZM38.303 12.5759V17H42.303V12.5759H38.303ZM40.303 15H39.1953V19H40.303V15ZM41.1953 17V7H37.1953V17H41.1953ZM39.1953 9H43.7706V5H39.1953V9ZM41.7706 7V8.07861H45.7706V7H41.7706ZM43.7706 6.07861H40.303V10.0786H43.7706V6.07861ZM38.303 8.07861V11.5155H42.303V8.07861H38.303ZM40.303 13.5155H43.2729V9.51554H40.303V13.5155ZM41.2729 11.5155V12.5759H45.2729V11.5155H41.2729Z" fill="white" mask="url(#path-3-inside-2_1247_622)"/>
<mask id="path-5-inside-3_1247_622" fill="white">
<path d="M52.2987 12.5759H48.5863V17H47.2017V7H52.9207V8.07861H48.5863V11.5155H52.2987V12.5759Z"/>
</mask>
<path d="M52.2987 12.5759H48.5863V17H47.2017V7H52.9207V8.07861H48.5863V11.5155H52.2987V12.5759Z" fill="white"/>
<path d="M52.2987 12.5759V14.5759H54.2987V12.5759H52.2987ZM48.5863 12.5759V10.5759H46.5863V12.5759H48.5863ZM48.5863 17V19H50.5863V17H48.5863ZM47.2017 17H45.2017V19H47.2017V17ZM47.2017 7V5H45.2017V7H47.2017ZM52.9207 7H54.9207V5H52.9207V7ZM52.9207 8.07861V10.0786H54.9207V8.07861H52.9207ZM48.5863 8.07861V6.07861H46.5863V8.07861H48.5863ZM48.5863 11.5155H46.5863V13.5155H48.5863V11.5155ZM52.2987 11.5155H54.2987V9.51554H52.2987V11.5155ZM52.2987 10.5759H48.5863V14.5759H52.2987V10.5759ZM46.5863 12.5759V17H50.5863V12.5759H46.5863ZM48.5863 15H47.2017V19H48.5863V15ZM49.2017 17V7H45.2017V17H49.2017ZM47.2017 9H52.9207V5H47.2017V9ZM50.9207 7V8.07861H54.9207V7H50.9207ZM52.9207 6.07861H48.5863V10.0786H52.9207V6.07861ZM46.5863 8.07861V11.5155H50.5863V8.07861H46.5863ZM48.5863 13.5155H52.2987V9.51554H48.5863V13.5155ZM50.2987 11.5155V12.5759H54.2987V11.5155H50.2987Z" fill="white" mask="url(#path-5-inside-3_1247_622)"/>
<mask id="path-7-inside-4_1247_622" fill="white">
<path d="M57.4964 17H56.3525V7H57.4964V17Z"/>
</mask>
<path d="M57.4964 17H56.3525V7H57.4964V17Z" fill="white"/>
<path d="M57.4964 17V19H59.4964V17H57.4964ZM56.3525 17H54.3525V19H56.3525V17ZM56.3525 7V5H54.3525V7H56.3525ZM57.4964 7H59.4964V5H57.4964V7ZM57.4964 15H56.3525V19H57.4964V15ZM58.3525 17V7H54.3525V17H58.3525ZM56.3525 9H57.4964V5H56.3525V9ZM55.4964 7V17H59.4964V7H55.4964Z" fill="white" mask="url(#path-7-inside-4_1247_622)"/>
<mask id="path-9-inside-5_1247_622" fill="white">
<path d="M62.3172 15.9214H66.6468V17H60.9277V7H62.3172V15.9214Z"/>
</mask>
<path d="M62.3172 15.9214H66.6468V17H60.9277V7H62.3172V15.9214Z" fill="white"/>
<path d="M62.3172 15.9214H60.3172V17.9214H62.3172V15.9214ZM66.6468 15.9214H68.6468V13.9214H66.6468V15.9214ZM66.6468 17V19H68.6468V17H66.6468ZM60.9277 17H58.9277V19H60.9277V17ZM60.9277 7V5H58.9277V7H60.9277ZM62.3172 7H64.3172V5H62.3172V7ZM62.3172 17.9214H66.6468V13.9214H62.3172V17.9214ZM64.6468 15.9214V17H68.6468V15.9214H64.6468ZM66.6468 15H60.9277V19H66.6468V15ZM62.9277 17V7H58.9277V17H62.9277ZM60.9277 9H62.3172V5H60.9277V9ZM60.3172 7V15.9214H64.3172V7H60.3172Z" fill="white" mask="url(#path-9-inside-5_1247_622)"/>
<mask id="path-11-inside-6_1247_622" fill="white">
<path d="M71.2219 17H70.0781V7H71.2219V17Z"/>
</mask>
<path d="M71.2219 17H70.0781V7H71.2219V17Z" fill="white"/>
<path d="M71.2219 17V19H73.2219V17H71.2219ZM70.0781 17H68.0781V19H70.0781V17ZM70.0781 7V5H68.0781V7H70.0781ZM71.2219 7H73.2219V5H71.2219V7ZM71.2219 15H70.0781V19H71.2219V15ZM72.0781 17V7H68.0781V17H72.0781ZM70.0781 9H71.2219V5H70.0781V9ZM69.2219 7V17H73.2219V7H69.2219Z" fill="white" mask="url(#path-11-inside-6_1247_622)"/>
<mask id="path-13-inside-7_1247_622" fill="white">
<path d="M80.4446 14.3857H76.8493L76.0331 17H74.6533L78.0737 7H79.2203L82.66 17H81.2802L80.4446 14.3857ZM77.1992 13.3071H80.0948L78.6372 8.75503L77.1992 13.3071Z"/>
</mask>
<path d="M80.4446 14.3857H76.8493L76.0331 17H74.6533L78.0737 7H79.2203L82.66 17H81.2802L80.4446 14.3857ZM77.1992 13.3071H80.0948L78.6372 8.75503L77.1992 13.3071Z" fill="white"/>
<path d="M80.4446 14.3857L82.3496 13.7768L81.905 12.3857H80.4446V14.3857ZM76.8493 14.3857V12.3857H75.3786L74.9402 13.7897L76.8493 14.3857ZM76.0331 17V19H77.5039L77.9422 17.5961L76.0331 17ZM74.6533 17L72.761 16.3527L71.8555 19H74.6533V17ZM78.0737 7V5H76.644L76.1813 6.35274L78.0737 7ZM79.2203 7L81.1115 6.34945L80.6473 5H79.2203V7ZM82.66 17V19H85.463L84.5513 16.3495L82.66 17ZM81.2802 17L79.3752 17.6089L79.8199 19H81.2802V17ZM77.1992 13.3071L75.2921 12.7046L74.4699 15.3071H77.1992V13.3071ZM80.0948 13.3071V15.3071H82.8352L81.9995 12.6973L80.0948 13.3071ZM78.6372 8.75503L80.542 8.14515L78.6244 2.15637L76.7302 8.15254L78.6372 8.75503ZM80.4446 12.3857H76.8493V16.3857H80.4446V12.3857ZM74.9402 13.7897L74.124 16.4039L77.9422 17.5961L78.7585 14.9818L74.9402 13.7897ZM76.0331 15H74.6533V19H76.0331V15ZM76.5457 17.6473L79.966 7.64726L76.1813 6.35274L72.761 16.3527L76.5457 17.6473ZM78.0737 9H79.2203V5H78.0737V9ZM77.329 7.65055L80.7688 17.6505L84.5513 16.3495L81.1115 6.34945L77.329 7.65055ZM82.66 15H81.2802V19H82.66V15ZM83.1853 16.3911L82.3496 13.7768L78.5396 14.9947L79.3752 17.6089L83.1853 16.3911ZM77.1992 15.3071H80.0948V11.3071H77.1992V15.3071ZM81.9995 12.6973L80.542 8.14515L76.7325 9.3649L78.19 13.917L81.9995 12.6973ZM76.7302 8.15254L75.2921 12.7046L79.1062 13.9096L80.5443 9.35751L76.7302 8.15254Z" fill="white" mask="url(#path-13-inside-7_1247_622)"/>
<mask id="path-15-inside-8_1247_622" fill="white">
<path d="M91.8109 8.07861H89.504V17H88.3987V8.07861H86.0918V7H91.8109V8.07861Z"/>
</mask>
<path d="M91.8109 8.07861H89.504V17H88.3987V8.07861H86.0918V7H91.8109V8.07861Z" fill="white"/>
<path d="M91.8109 8.07861V10.0786H93.8109V8.07861H91.8109ZM89.504 8.07861V6.07861H87.504V8.07861H89.504ZM89.504 17V19H91.504V17H89.504ZM88.3987 17H86.3987V19H88.3987V17ZM88.3987 8.07861H90.3987V6.07861H88.3987V8.07861ZM86.0918 8.07861H84.0918V10.0786H86.0918V8.07861ZM86.0918 7V5H84.0918V7H86.0918ZM91.8109 7H93.8109V5H91.8109V7ZM91.8109 6.07861H89.504V10.0786H91.8109V6.07861ZM87.504 8.07861V17H91.504V8.07861H87.504ZM89.504 15H88.3987V19H89.504V15ZM90.3987 17V8.07861H86.3987V17H90.3987ZM88.3987 6.07861H86.0918V10.0786H88.3987V6.07861ZM88.0918 8.07861V7H84.0918V8.07861H88.0918ZM86.0918 9H91.8109V5H86.0918V9ZM89.8109 7V8.07861H93.8109V7H89.8109Z" fill="white" mask="url(#path-15-inside-8_1247_622)"/>
<mask id="path-17-inside-9_1247_622" fill="white">
<path d="M100.339 12.3748H96.565V15.9214H100.961V17H95.2422V7H100.903V8.07861H96.565V11.2962H100.339V12.3748Z"/>
</mask>
<path d="M100.339 12.3748H96.565V15.9214H100.961V17H95.2422V7H100.903V8.07861H96.565V11.2962H100.339V12.3748Z" fill="white"/>
<path d="M100.339 12.3748V14.3748H102.339V12.3748H100.339ZM96.565 12.3748V10.3748H94.565V12.3748H96.565ZM96.565 15.9214H94.565V17.9214H96.565V15.9214ZM100.961 15.9214H102.961V13.9214H100.961V15.9214ZM100.961 17V19H102.961V17H100.961ZM95.2422 17H93.2422V19H95.2422V17ZM95.2422 7V5H93.2422V7H95.2422ZM100.903 7H102.903V5H100.903V7ZM100.903 8.07861V10.0786H102.903V8.07861H100.903ZM96.565 8.07861V6.07861H94.565V8.07861H96.565ZM96.565 11.2962H94.565V13.2962H96.565V11.2962ZM100.339 11.2962H102.339V9.29616H100.339V11.2962ZM100.339 10.3748H96.565V14.3748H100.339V10.3748ZM94.565 12.3748V15.9214H98.565V12.3748H94.565ZM96.565 17.9214H100.961V13.9214H96.565V17.9214ZM98.9613 15.9214V17H102.961V15.9214H98.9613ZM100.961 15H95.2422V19H100.961V15ZM97.2422 17V7H93.2422V17H97.2422ZM95.2422 9H100.903V5H95.2422V9ZM98.9029 7V8.07861H102.903V7H98.9029ZM100.903 6.07861H96.565V10.0786H100.903V6.07861ZM94.565 8.07861V11.2962H98.565V8.07861H94.565ZM96.565 13.2962H100.339V9.29616H96.565V13.2962ZM98.3388 11.2962V12.3748H102.339V11.2962H98.3388Z" fill="white" mask="url(#path-17-inside-9_1247_622)"/>
<mask id="path-19-inside-10_1247_622" fill="white">
<path d="M112.429 13.8556L112.547 14.9707L112.734 13.9835L114.222 7H115.203L116.641 13.9835L116.827 15.0073L116.962 13.8556L118.095 7.01828H119.262L117.385 17H116.336L114.797 9.70567L114.696 9.12066L114.594 9.70567L112.987 17H111.939L110.112 7H111.279L112.429 13.8556Z"/>
</mask>
<path d="M112.429 13.8556L112.547 14.9707L112.734 13.9835L114.222 7H115.203L116.641 13.9835L116.827 15.0073L116.962 13.8556L118.095 7.01828H119.262L117.385 17H116.336L114.797 9.70567L114.696 9.12066L114.594 9.70567L112.987 17H111.939L110.112 7H111.279L112.429 13.8556Z" fill="white"/>
<path d="M112.429 13.8556L114.418 13.6444L114.411 13.5843L114.401 13.5247L112.429 13.8556ZM112.547 14.9707L110.559 15.1819L114.513 15.3412L112.547 14.9707ZM112.734 13.9835L110.777 13.5666L110.772 13.5898L110.768 13.6131L112.734 13.9835ZM114.222 7V5H112.603L112.266 6.58309L114.222 7ZM115.203 7L117.162 6.59672L116.833 5H115.203V7ZM116.641 13.9835L118.608 13.6259L118.604 13.603L118.6 13.5803L116.641 13.9835ZM116.827 15.0073L114.859 15.3649L118.813 15.2407L116.827 15.0073ZM116.962 13.8556L114.989 13.5285L114.981 13.5752L114.976 13.6222L116.962 13.8556ZM118.095 7.01828V5.01828H116.399L116.122 6.69125L118.095 7.01828ZM119.262 7.01828L121.228 7.38798L121.674 5.01828H119.262V7.01828ZM117.385 17V19H119.044L119.35 17.3697L117.385 17ZM116.336 17L114.379 17.4129L114.714 19H116.336V17ZM114.797 9.70567L112.826 10.0475L112.833 10.0832L112.84 10.1186L114.797 9.70567ZM114.696 9.12066L116.666 8.77879L112.725 8.77882L114.696 9.12066ZM114.594 9.70567L116.547 10.1359L116.557 10.0919L116.565 10.0475L114.594 9.70567ZM112.987 17V19H114.595L114.94 17.4303L112.987 17ZM111.939 17L109.971 17.3594L110.271 19H111.939V17ZM110.112 7V5H107.713L108.144 7.3594L110.112 7ZM111.279 7L113.251 6.66909L112.971 5H111.279V7ZM110.44 14.0667L110.559 15.1819L114.536 14.7596L114.418 13.6444L110.44 14.0667ZM114.513 15.3412L114.699 14.354L110.768 13.6131L110.582 14.6003L114.513 15.3412ZM114.69 14.4005L116.178 7.41691L112.266 6.58309L110.777 13.5666L114.69 14.4005ZM114.222 9H115.203V5H114.222V9ZM113.244 7.40328L114.682 14.3868L118.6 13.5803L117.162 6.59672L113.244 7.40328ZM114.673 14.3412L114.859 15.3649L118.794 14.6497L118.608 13.6259L114.673 14.3412ZM118.813 15.2407L118.948 14.0889L114.976 13.6222L114.84 14.7739L118.813 15.2407ZM118.935 14.1826L120.068 7.34531L116.122 6.69125L114.989 13.5285L118.935 14.1826ZM118.095 9.01828H119.262V5.01828H118.095V9.01828ZM117.297 6.64858L115.419 16.6303L119.35 17.3697L121.228 7.38798L117.297 6.64858ZM117.385 15H116.336V19H117.385V15ZM118.293 16.5871L116.754 9.29274L112.84 10.1186L114.379 17.4129L118.293 16.5871ZM116.768 9.3638L116.666 8.77879L112.725 9.46252L112.826 10.0475L116.768 9.3638ZM112.725 8.77882L112.623 9.36383L116.565 10.0475L116.666 9.46249L112.725 8.77882ZM112.641 9.27541L111.034 16.5697L114.94 17.4303L116.547 10.1359L112.641 9.27541ZM112.987 15H111.939V19H112.987V15ZM113.906 16.6406L112.079 6.6406L108.144 7.3594L109.971 17.3594L113.906 16.6406ZM110.112 9H111.279V5H110.112V9ZM109.306 7.33091L110.457 14.1865L114.401 13.5247L113.251 6.66909L109.306 7.33091Z" fill="white" mask="url(#path-19-inside-10_1247_622)"/>
<mask id="path-21-inside-11_1247_622" fill="white">
<path d="M127.341 14.3857H123.746L122.93 17H121.55L124.97 7H126.117L129.557 17H128.177L127.341 14.3857ZM124.096 13.3071H126.991L125.534 8.75503L124.096 13.3071Z"/>
</mask>
<path d="M127.341 14.3857H123.746L122.93 17H121.55L124.97 7H126.117L129.557 17H128.177L127.341 14.3857ZM124.096 13.3071H126.991L125.534 8.75503L124.096 13.3071Z" fill="white"/>
<path d="M127.341 14.3857L129.246 13.7768L128.801 12.3857H127.341V14.3857ZM123.746 14.3857V12.3857H122.275L121.837 13.7897L123.746 14.3857ZM122.93 17V19H124.4L124.839 17.5961L122.93 17ZM121.55 17L119.657 16.3527L118.752 19H121.55V17ZM124.97 7V5H123.54L123.078 6.35274L124.97 7ZM126.117 7L128.008 6.34945L127.544 5H126.117V7ZM129.557 17V19H132.359L131.448 16.3495L129.557 17ZM128.177 17L126.272 17.6089L126.716 19H128.177V17ZM124.096 13.3071L122.189 12.7046L121.366 15.3071H124.096V13.3071ZM126.991 13.3071V15.3071H129.732L128.896 12.6973L126.991 13.3071ZM125.534 8.75503L127.438 8.14515L125.521 2.15637L123.627 8.15254L125.534 8.75503ZM127.341 12.3857H123.746V16.3857H127.341V12.3857ZM121.837 13.7897L121.02 16.4039L124.839 17.5961L125.655 14.9818L121.837 13.7897ZM122.93 15H121.55V19H122.93V15ZM123.442 17.6473L126.863 7.64726L123.078 6.35274L119.657 16.3527L123.442 17.6473ZM124.97 9H126.117V5H124.97V9ZM124.226 7.65055L127.665 17.6505L131.448 16.3495L128.008 6.34945L124.226 7.65055ZM129.557 15H128.177V19H129.557V15ZM130.082 16.3911L129.246 13.7768L125.436 14.9947L126.272 17.6089L130.082 16.3911ZM124.096 15.3071H126.991V11.3071H124.096V15.3071ZM128.896 12.6973L127.438 8.14515L123.629 9.3649L125.087 13.917L128.896 12.6973ZM123.627 8.15254L122.189 12.7046L126.003 13.9096L127.441 9.35751L123.627 8.15254Z" fill="white" mask="url(#path-21-inside-11_1247_622)"/>
<mask id="path-23-inside-12_1247_622" fill="white">
<path d="M135.259 15.0804L137.403 7H138.707L135.79 17H134.761L131.844 7H133.131L135.259 15.0804Z"/>
</mask>
<path d="M135.259 15.0804L137.403 7H138.707L135.79 17H134.761L131.844 7H133.131L135.259 15.0804Z" fill="white"/>
<path d="M135.259 15.0804L133.324 15.5897L135.251 22.906L137.192 15.5935L135.259 15.0804ZM137.403 7V5H135.865L135.47 6.48694L137.403 7ZM138.707 7L140.627 7.56001L141.374 5H138.707V7ZM135.79 17V19H137.29L137.71 17.56L135.79 17ZM134.761 17L132.841 17.56L133.261 19H134.761V17ZM131.844 7V5H129.178L129.924 7.56001L131.844 7ZM133.131 7L135.065 6.49077L134.673 5H133.131V7ZM137.192 15.5935L139.336 7.51306L135.47 6.48694L133.325 14.5674L137.192 15.5935ZM137.403 9H138.707V5H137.403V9ZM136.787 6.43999L133.87 16.44L137.71 17.56L140.627 7.56001L136.787 6.43999ZM135.79 15H134.761V19H135.79V15ZM136.681 16.44L133.764 6.43999L129.924 7.56001L132.841 17.56L136.681 16.44ZM131.844 9H133.131V5H131.844V9ZM131.197 7.50923L133.324 15.5897L137.193 14.5712L135.065 6.49077L131.197 7.50923Z" fill="white" mask="url(#path-23-inside-12_1247_622)"/>
<mask id="path-25-inside-13_1247_622" fill="white">
<path d="M146.091 12.3748H142.317V15.9214H146.714V17H140.995V7H146.655V8.07861H142.337V11.2962H146.111V12.3748H146.091Z"/>
</mask>
<path d="M146.091 12.3748H142.317V15.9214H146.714V17H140.995V7H146.655V8.07861H142.337V11.2962H146.111V12.3748H146.091Z" fill="white"/>
<path d="M142.317 12.3748V10.3748H140.317V12.3748H142.317ZM142.317 15.9214H140.317V17.9214H142.317V15.9214ZM146.714 15.9214H148.714V13.9214H146.714V15.9214ZM146.714 17V19H148.714V17H146.714ZM140.995 17H138.995V19H140.995V17ZM140.995 7V5H138.995V7H140.995ZM146.655 7H148.655V5H146.655V7ZM146.655 8.07861V10.0786H148.655V8.07861H146.655ZM142.337 8.07861V6.07861H140.337V8.07861H142.337ZM142.337 11.2962H140.337V13.2962H142.337V11.2962ZM146.111 11.2962H148.111V9.29616H146.111V11.2962ZM146.111 12.3748V14.3748H148.111V12.3748H146.111ZM146.091 10.3748H142.317V14.3748H146.091V10.3748ZM140.317 12.3748V15.9214H144.317V12.3748H140.317ZM142.317 17.9214H146.714V13.9214H142.317V17.9214ZM144.714 15.9214V17H148.714V15.9214H144.714ZM146.714 15H140.995V19H146.714V15ZM142.995 17V7H138.995V17H142.995ZM140.995 9H146.655V5H140.995V9ZM144.655 7V8.07861H148.655V7H144.655ZM146.655 6.07861H142.337V10.0786H146.655V6.07861ZM140.337 8.07861V11.2962H144.337V8.07861H140.337ZM142.337 13.2962H146.111V9.29616H142.337V13.2962ZM144.111 11.2962V12.3748H148.111V11.2962H144.111ZM146.111 10.3748H146.091V14.3748H146.111V10.3748Z" fill="white" mask="url(#path-25-inside-13_1247_622)"/>
<path d="M147.445 21.1262H19.636C16.6164 21.1262 14.1187 20.0959 12.3869 18.1922C10.8882 16.5348 10.0557 14.2839 10.0557 11.8651C10.0557 9.65896 10.7439 7.57604 11.9984 6.01945C13.4082 4.27249 15.3509 3.34302 17.6488 3.34302C21.7674 3.34302 23.7434 5.76189 24.6648 7.80001C25.6528 9.95012 25.6861 12.0666 25.6861 12.1562C25.6861 12.4698 25.4418 12.7161 25.1421 12.7161C25.1421 12.7161 25.1421 12.7161 25.131 12.7161C24.8313 12.7161 24.576 12.4698 24.576 12.1674C24.576 12.145 24.5427 10.1741 23.6435 8.23675C22.4889 5.72829 20.4685 4.46286 17.6488 4.46286C13.3971 4.46286 11.1658 8.18076 11.1658 11.8539C11.1658 13.9928 11.8874 15.9861 13.2084 17.4307C14.7181 19.0993 16.9495 20.0063 19.636 20.0063H147.445C147.756 20.0063 148 20.2527 148 20.5663C148 20.8798 147.756 21.1262 147.445 21.1262Z" fill="url(#paint0_linear_1247_622)"/>
<path d="M124.908 23.8139H122.244C121.933 23.8139 121.688 23.5676 121.688 23.254C121.688 22.9405 121.933 22.6941 122.244 22.6941H124.908C125.219 22.6941 125.463 22.9405 125.463 23.254C125.463 23.5676 125.219 23.8139 124.908 23.8139Z" fill="#5D21C7"/>
<path d="M20.946 23.8587C19.2808 23.8587 18.093 23.8363 17.4158 23.7691C11.2547 23.1756 7.87996 17.4084 7.73565 12.0219C7.65794 9.17751 8.45722 6.45628 9.98918 4.37336C11.721 1.99929 14.3408 0.487493 17.5491 0.00595812C17.8488 -0.0388358 18.1374 0.173935 18.1818 0.476294C18.2262 0.778652 18.0153 1.06981 17.7156 1.11461C10.9883 2.12247 8.73475 7.60972 8.85686 11.9995C8.99008 16.8933 12.0096 22.1341 17.5269 22.6605C18.6925 22.7725 21.7786 22.7613 26.0414 22.7277C28.7168 22.7053 32.036 22.6941 35.6772 22.6941H119.024C119.335 22.6941 119.579 22.9404 119.579 23.254C119.579 23.5675 119.335 23.8139 119.024 23.8139H35.6772C32.036 23.8139 28.7168 23.8251 26.0414 23.8475C24.0321 23.8699 22.3225 23.8587 20.946 23.8587Z" fill="url(#paint1_linear_1247_622)"/>
<path d="M103.372 26.6135H101.373C101.063 26.6135 100.818 26.3671 100.818 26.0536C100.818 25.74 101.063 25.4937 101.373 25.4937H103.372C103.682 25.4937 103.927 25.74 103.927 26.0536C103.927 26.3671 103.682 26.6135 103.372 26.6135Z" fill="#5D21C7"/>
<path d="M98.1542 26.6135H30.0158C22.6336 26.6135 17.7491 26.5911 14.9738 26.0536C11.0995 25.2921 7.90234 21.899 6.40369 16.9716C5.63771 14.452 5.39348 11.6971 5.72652 9.23348C6.08175 6.56824 7.05865 4.36214 8.54621 2.85035C8.76823 2.62638 9.11237 2.62638 9.33439 2.85035C9.55641 3.07432 9.55641 3.42147 9.33439 3.64544C6.71452 6.28828 5.94854 11.63 7.4694 16.6357C8.83484 21.1487 11.7211 24.273 15.1847 24.9561C17.8601 25.4825 22.7002 25.4937 30.0158 25.4937H98.1542C98.465 25.4937 98.7092 25.74 98.7092 26.0536C98.7092 26.3671 98.465 26.6135 98.1542 26.6135Z" fill="url(#paint2_linear_1247_622)"/>
<path d="M84.0554 29.3012H81.6132C81.3023 29.3012 81.0581 29.0549 81.0581 28.7413C81.0581 28.4278 81.3023 28.1814 81.6132 28.1814H84.0554C84.3662 28.1814 84.6105 28.4278 84.6105 28.7413C84.6105 29.0549 84.3662 29.3012 84.0554 29.3012Z" fill="#5D21C7"/>
<path d="M78.0609 29.3012H24.343C18.6814 29.3012 14.3631 28.8197 12.1873 27.991C8.20194 26.4568 5.39335 23.1644 4.07232 18.4835C3.08431 14.9895 3.27303 11.9772 3.28414 11.854C3.30634 11.5404 3.57276 11.3053 3.8725 11.3276C4.18333 11.35 4.40535 11.6188 4.39425 11.9212C4.39425 11.966 4.21663 14.8888 5.14913 18.1923C6.38135 22.5597 8.89021 25.5161 12.5758 26.9383C14.6184 27.7222 18.8035 28.1814 24.3319 28.1814H78.0499C78.3607 28.1814 78.6049 28.4277 78.6049 28.7413C78.6049 29.0548 78.3718 29.3012 78.0609 29.3012Z" fill="url(#paint3_linear_1247_622)"/>
<path d="M61.5202 30.869H18.6814C12.3426 30.869 7.46923 28.6965 4.17219 24.4411C1.71884 21.2719 1.10827 18.0356 1.09717 17.9796C1.04167 17.6772 0.753037 17.4644 0.453306 17.5204C0.153575 17.5764 -0.0462457 17.8676 0.00926005 18.1699C0.0314623 18.3155 0.653126 21.6751 3.26189 25.0794C4.79385 27.0839 6.71435 28.6965 8.93458 29.8388C11.7099 31.261 14.9847 32.0001 18.6703 32.0001H61.5091C61.82 32.0001 62.0642 31.7537 62.0642 31.4401C62.0642 31.1266 61.8311 30.869 61.5202 30.869Z" fill="url(#paint4_linear_1247_622)"/>
<path d="M67.6256 30.8689H64.9613C64.6505 30.8689 64.4062 31.1153 64.4062 31.4288C64.4062 31.7424 64.6505 31.9887 64.9613 31.9887H67.6256C67.9364 31.9887 68.1806 31.7424 68.1806 31.4288C68.1806 31.1153 67.9364 30.8689 67.6256 30.8689Z" fill="#5D21C7"/>
<defs>
<linearGradient id="paint0_linear_1247_622" x1="114.295" y1="12.2386" x2="10.0584" y2="12.2386" gradientUnits="userSpaceOnUse">
<stop stop-color="#5D21C7"/>
<stop offset="0.1464" stop-color="#5B29CB"/>
<stop offset="0.3777" stop-color="#5440D8"/>
<stop offset="0.6634" stop-color="#4A65EB"/>
<stop offset="0.7865" stop-color="#4577F5"/>
<stop offset="0.8269" stop-color="#4573F4"/>
<stop offset="0.8659" stop-color="#4668F2"/>
<stop offset="0.9043" stop-color="#4854EF"/>
<stop offset="0.9424" stop-color="#4A39EA"/>
<stop offset="0.9798" stop-color="#4D16E4"/>
<stop offset="1" stop-color="#4F00E0"/>
</linearGradient>
<linearGradient id="paint1_linear_1247_622" x1="99.7522" y1="11.9296" x2="7.73673" y2="11.9296" gradientUnits="userSpaceOnUse">
<stop stop-color="#5D21C7"/>
<stop offset="0.1464" stop-color="#5B29CB"/>
<stop offset="0.3777" stop-color="#5440D8"/>
<stop offset="0.6634" stop-color="#4A65EB"/>
<stop offset="0.7865" stop-color="#4577F5"/>
<stop offset="0.8269" stop-color="#4573F4"/>
<stop offset="0.8659" stop-color="#4668F2"/>
<stop offset="0.9043" stop-color="#4854EF"/>
<stop offset="0.9424" stop-color="#4A39EA"/>
<stop offset="0.9798" stop-color="#4D16E4"/>
<stop offset="1" stop-color="#4F00E0"/>
</linearGradient>
<linearGradient id="paint2_linear_1247_622" x1="78.8822" y1="14.6507" x2="5.57839" y2="14.6507" gradientUnits="userSpaceOnUse">
<stop stop-color="#5D21C7"/>
<stop offset="0.1464" stop-color="#5B29CB"/>
<stop offset="0.3777" stop-color="#5440D8"/>
<stop offset="0.6634" stop-color="#4A65EB"/>
<stop offset="0.7865" stop-color="#4577F5"/>
<stop offset="0.8269" stop-color="#4573F4"/>
<stop offset="0.8659" stop-color="#4668F2"/>
<stop offset="0.9043" stop-color="#4854EF"/>
<stop offset="0.9424" stop-color="#4A39EA"/>
<stop offset="0.9798" stop-color="#4D16E4"/>
<stop offset="1" stop-color="#4F00E0"/>
</linearGradient>
<linearGradient id="paint3_linear_1247_622" x1="58.789" y1="20.3155" x2="3.27431" y2="20.3155" gradientUnits="userSpaceOnUse">
<stop stop-color="#5D21C7"/>
<stop offset="0.1464" stop-color="#5B29CB"/>
<stop offset="0.3777" stop-color="#5440D8"/>
<stop offset="0.6634" stop-color="#4A65EB"/>
<stop offset="0.7865" stop-color="#4577F5"/>
<stop offset="0.8269" stop-color="#4573F4"/>
<stop offset="0.8659" stop-color="#4668F2"/>
<stop offset="0.9043" stop-color="#4854EF"/>
<stop offset="0.9424" stop-color="#4A39EA"/>
<stop offset="0.9798" stop-color="#4D16E4"/>
<stop offset="1" stop-color="#4F00E0"/>
</linearGradient>
<linearGradient id="paint4_linear_1247_622" x1="42.2483" y1="24.7495" x2="-0.000987154" y2="24.7495" gradientUnits="userSpaceOnUse">
<stop stop-color="#5D21C7"/>
<stop offset="0.1464" stop-color="#5B29CB"/>
<stop offset="0.3777" stop-color="#5440D8"/>
<stop offset="0.6634" stop-color="#4A65EB"/>
<stop offset="0.7865" stop-color="#4577F5"/>
<stop offset="0.8269" stop-color="#4573F4"/>
<stop offset="0.8659" stop-color="#4668F2"/>
<stop offset="0.9043" stop-color="#4854EF"/>
<stop offset="0.9424" stop-color="#4A39EA"/>
<stop offset="0.9798" stop-color="#4D16E4"/>
<stop offset="1" stop-color="#4F00E0"/>
</linearGradient>
</defs>
</svg>
