<svg
  width="119"
  height="119"
  viewBox="0 0 119 119"
  fill="none"
  xmlns="http://www.w3.org/2000/svg"
>
  <g clip-path="url(#clip0_1_10)">
    <path
      d="M59.5074 0C26.696 0 0 26.696 0 59.5074C0 92.3187 26.696 119.015 59.5074 119.015C92.3187 119.015 119.015 92.3187 119.015 59.5074C119.015 26.696 92.304 0 59.5074 0ZM74.8399 40.0881C74.8399 41.7786 73.4728 43.1458 71.7822 43.1458H66.593C65.0053 43.1458 64.6084 43.4692 64.5202 43.5574C64.3732 43.7191 64.2115 44.1748 64.2115 45.439V49.3053H71.4C71.9439 49.3053 72.4584 49.4376 72.9141 49.6875C73.8844 50.2314 74.4871 51.2604 74.4871 52.3629V62.1387C74.4871 63.8293 73.1053 65.1964 71.4147 65.1964H64.2115V87.9968C64.2115 89.6873 62.8443 91.0545 61.1538 91.0545H51.0399C49.3494 91.0545 47.9822 89.6873 47.9822 87.9968V65.1964H42.0873C40.3968 65.1964 39.0296 63.8293 39.0296 62.1387V52.3629C39.0296 50.6724 40.3968 49.3053 42.0873 49.3053H47.9822V44.41C47.9822 39.5589 49.5111 35.428 52.3923 32.4733C55.2883 29.5038 59.3309 27.9308 64.0939 27.9308H71.7969C73.4875 27.9455 74.8546 29.3127 74.8546 31.0032V40.0734L74.8399 40.0881Z"
      fill="url(#paint0_linear_1_10)"
      fill-opacity="0.37"
      style="mix-blend-mode: color-dodge"
    />
    <path
      d="M51.6723 44.4103V50.9667C51.6723 52.0986 50.7609 53.0101 49.6289 53.0101H42.7197V61.5069H49.6289C50.7609 61.5069 51.6723 62.4183 51.6723 63.5503V87.365H60.5073V63.5503C60.5073 62.4183 61.4187 61.5069 62.5506 61.5069H70.7829V53.0101H62.5506C61.4187 53.0101 60.5073 52.0986 60.5073 50.9667V45.4393C60.5073 43.9987 60.6543 42.3523 61.7421 41.1174C63.0651 39.618 65.1379 39.4563 66.5932 39.4563H71.1504V31.665H64.0795C56.4352 31.665 51.6723 36.5456 51.6723 44.425V44.4103Z"
      fill="#D39ED6"
    />
  </g>
  <defs>
    <linearGradient
      id="paint0_linear_1_10"
      x1="89.2463"
      y1="111.018"
      x2="29.7537"
      y2="7.98233"
      gradientUnits="userSpaceOnUse"
    >
      <stop stop-color="#E992BC" />
      <stop offset="0.171666" stop-color="#8E378B" />
      <stop offset="1" stop-color="#FACF88" />
    </linearGradient>
    <clipPath id="clip0_1_10">
      <rect width="119" height="119" fill="white" />
    </clipPath>
  </defs>
</svg>
