<svg width="143" height="82" viewBox="0 0 143 82" fill="none" xmlns="http://www.w3.org/2000/svg">
<path d="M6.77176 78.912H3.21976L2.41576 81H1.23976L4.45576 72.6H5.58376L8.79976 81H7.57576L6.77176 78.912ZM3.59176 77.928H6.39976L4.99576 74.04L3.59176 77.928ZM11.4388 72.6H16.8388V73.584H12.5668V76.308H16.4788V77.292H12.5668V81H11.4388V72.6ZM19.7755 72.6H25.1755V73.584H20.9035V76.308H24.8155V77.292H20.9035V81H19.7755V72.6ZM28.2323 72.6H29.3603V81H28.2323V72.6ZM33.0857 72.6H34.2137V80.016H38.4857V81H33.0857V72.6ZM41.2494 72.6H42.3774V81H41.2494V72.6ZM50.6749 78.912H47.1229L46.3189 81H45.1429L48.3589 72.6H49.4869L52.7029 81H51.4789L50.6749 78.912ZM47.4949 77.928H50.3029L48.8989 74.04L47.4949 77.928ZM56.337 73.584H53.421V72.6H60.381V73.584H57.465V81H56.337V73.584ZM63.0224 72.6H68.4224V73.584H64.1504V76.188H68.0624V77.172H64.1504V80.016H68.4224V81H63.0224V72.6ZM75.7466 72.6H76.8506L81.3626 79.14V72.6H82.4666V81H81.3626L76.8506 74.46V81H75.7466V72.6ZM86.0638 72.6H91.4638V73.584H87.1918V76.188H91.1038V77.172H87.1918V80.016H91.4638V81H86.0638V72.6ZM96.6612 73.584H93.7452V72.6H100.705V73.584H97.7892V81H96.6612V73.584ZM102.87 72.6H104.07L105.798 79.2L107.766 72.6H108.774L110.778 79.2L112.518 72.6H113.67L111.414 81H110.286L108.246 74.4L106.254 81H105.126L102.87 72.6ZM119.552 81.12C119.072 81.12 118.608 81.04 118.16 80.88C117.712 80.712 117.316 80.456 116.972 80.112C116.628 79.768 116.352 79.328 116.144 78.792C115.936 78.256 115.832 77.612 115.832 76.86V76.62C115.832 75.9 115.936 75.28 116.144 74.76C116.352 74.24 116.628 73.812 116.972 73.476C117.316 73.132 117.712 72.88 118.16 72.72C118.608 72.56 119.072 72.48 119.552 72.48C120.032 72.48 120.496 72.56 120.944 72.72C121.392 72.88 121.788 73.132 122.132 73.476C122.476 73.812 122.752 74.24 122.96 74.76C123.168 75.28 123.272 75.9 123.272 76.62V76.86C123.272 77.612 123.168 78.256 122.96 78.792C122.752 79.328 122.476 79.768 122.132 80.112C121.788 80.456 121.392 80.712 120.944 80.88C120.496 81.04 120.032 81.12 119.552 81.12ZM119.552 80.112C119.88 80.112 120.196 80.052 120.5 79.932C120.804 79.812 121.072 79.624 121.304 79.368C121.536 79.104 121.72 78.768 121.856 78.36C122 77.944 122.072 77.444 122.072 76.86V76.62C122.072 76.068 122 75.596 121.856 75.204C121.72 74.804 121.536 74.48 121.304 74.232C121.072 73.976 120.804 73.788 120.5 73.668C120.196 73.548 119.88 73.488 119.552 73.488C119.224 73.488 118.908 73.548 118.604 73.668C118.3 73.788 118.032 73.976 117.8 74.232C117.568 74.48 117.38 74.804 117.236 75.204C117.1 75.596 117.032 76.068 117.032 76.62V76.86C117.032 77.444 117.1 77.944 117.236 78.36C117.38 78.768 117.568 79.104 117.8 79.368C118.032 79.624 118.3 79.812 118.604 79.932C118.908 80.052 119.224 80.112 119.552 80.112ZM126.395 72.6H129.335C129.863 72.6 130.323 72.664 130.715 72.792C131.115 72.92 131.447 73.096 131.711 73.32C131.975 73.544 132.175 73.812 132.311 74.124C132.447 74.428 132.515 74.76 132.515 75.12C132.515 75.68 132.347 76.172 132.011 76.596C131.683 77.012 131.195 77.304 130.547 77.472L132.755 81H131.423L129.419 77.616H127.523V81H126.395V72.6ZM129.215 76.656C129.991 76.656 130.547 76.516 130.883 76.236C131.219 75.948 131.387 75.576 131.387 75.12C131.387 74.664 131.219 74.296 130.883 74.016C130.547 73.728 129.991 73.584 129.215 73.584H127.523V76.656H129.215ZM135.751 72.6H136.879V77.028L140.827 72.6H142.231L139.111 76.056L142.471 81H141.079L138.379 76.824L136.879 78.468V81H135.751V72.6Z" fill="#FFF30C"/>
<path d="M0.974869 60.9923V33.3706H7.30391V54.6165H28.3941V60.9923H0.974869Z" fill="white"/>
<path d="M33.5407 33.3706V60.9923H75.6381V54.6165H39.8697V50.3593H75.6381V43.9836H39.8697V39.7464H75.6381V33.3706H33.5407Z" fill="white"/>
<path fill-rule="evenodd" clip-rule="evenodd" d="M81.7114 60.9923V33.3706H109.131V60.9923H102.802V50.3593H88.0404V60.9923H81.7114ZM102.802 39.7464H88.0404V43.9836H102.802V39.7464Z" fill="white"/>
<path d="M111.359 28.0187H78.2917V0.396973H87.8898V21.6429H111.359V28.0187Z" fill="white"/>
<path d="M72.483 28.0187H75.638V0.396973H72.483V28.0187Z" fill="white"/>
<path d="M69.8293 0.396973H68.2068V28.0187H69.8293V0.396973Z" fill="white"/>
<path fill-rule="evenodd" clip-rule="evenodd" d="M35.2351 28.0187H62.6543V0.396973H35.2351V28.0187ZM41.5641 6.77275H56.3253V21.6429H41.5641V6.77275Z" fill="white"/>
<path d="M0.974854 0.396973V28.0187H28.3941V11.0099H15.3181V17.3857H22.0651V21.6429H7.3039V6.77275H28.3941V0.396973H0.974854Z" fill="white"/>
<path fill-rule="evenodd" clip-rule="evenodd" d="M137.423 0.396973H114.551V60.9924H137.423C138.878 60.9924 140.121 60.4728 141.153 59.4334C142.185 58.3941 142.701 57.1416 142.701 55.6759V5.71345C142.701 4.24776 142.185 2.99525 141.153 1.95594C140.121 0.916629 138.878 0.396973 137.423 0.396973ZM136.372 54.6166V6.77275L124.369 6.77278V54.6167L136.372 54.6166Z" fill="white"/>
</svg>
