<svg
  width="119"
  height="119"
  viewBox="0 0 119 119"
  fill="none"
  xmlns="http://www.w3.org/2000/svg"
>
  <g clip-path="url(#clip0_1_34)">
    <path
      d="M59.5 72C66.4036 72 72 66.4036 72 59.5C72 52.5964 66.4036 47 59.5 47C52.5964 47 47 52.5964 47 59.5C47 66.4036 52.5964 72 59.5 72Z"
      fill="#D39ED6"
    />
    <path
      d="M74.2372 31.1355H44.7628C37.2509 31.1355 31.1355 37.2509 31.1355 44.7628V74.2372C31.1355 81.7491 37.2509 87.8645 44.7628 87.8645H74.2372C81.7491 87.8645 87.8645 81.7491 87.8645 74.2372V44.7628C87.8645 37.2509 81.7491 31.1355 74.2372 31.1355ZM59.4927 77.0891C49.8051 77.0891 41.9109 69.2096 41.9109 59.5073C41.9109 49.8051 49.7904 41.9256 59.4927 41.9256C69.195 41.9256 77.0744 49.8051 77.0744 59.5073C77.0744 69.2096 69.195 77.0891 59.4927 77.0891ZM77.486 46.0859C74.6194 46.0859 72.2967 43.7485 72.2967 40.8966C72.2967 38.0447 74.6194 35.7073 77.486 35.7073C80.3526 35.7073 82.6752 38.03 82.6752 40.8966C82.6752 43.7632 80.3526 46.0859 77.486 46.0859Z"
      fill="#D39ED6"
    />
    <path
      d="M59.5074 0C26.696 0 0 26.696 0 59.5074C0 92.3187 26.696 119.015 59.5074 119.015C92.3187 119.015 119.015 92.3187 119.015 59.5074C119.015 26.696 92.304 0 59.5074 0ZM91.6425 74.2372C91.6425 83.8366 83.8366 91.6425 74.2372 91.6425H44.7628C35.1634 91.6425 27.3575 83.8366 27.3575 74.2372V44.7628C27.3575 35.1634 35.1634 27.3575 44.7628 27.3575H74.2372C83.8366 27.3575 91.6425 35.1634 91.6425 44.7628V74.2372Z"
      fill="url(#paint0_linear_1_34)"
      fill-opacity="0.37"
      style="mix-blend-mode: color-dodge"
    />
  </g>
  <defs>
    <linearGradient
      id="paint0_linear_1_34"
      x1="89.2463"
      y1="111.018"
      x2="29.7537"
      y2="7.98233"
      gradientUnits="userSpaceOnUse"
    >
      <stop stop-color="#E992BC" />
      <stop offset="0.76" stop-color="#8E378B" />
      <stop offset="1" stop-color="#FACF88" />
    </linearGradient>
    <clipPath id="clip0_1_34">
      <rect width="119" height="119" fill="white" />
    </clipPath>
  </defs>
</svg>
