<svg
  width="119"
  height="119"
  viewBox="0 0 119 119"
  fill="none"
  xmlns="http://www.w3.org/2000/svg"
>
  <g clip-path="url(#clip0_1_24)">
    <g clip-path="url(#clip1_1_24)">
      <path
        d="M39.6181 26.7842C37.5013 26.7842 35.7666 28.5188 35.7666 30.6357C35.7666 32.7526 37.5013 34.4872 39.6181 34.4872C41.735 34.4872 43.4696 32.7526 43.4696 30.6357C43.4696 28.5188 41.735 26.7842 39.6181 26.7842Z"
        fill="#D39ED6"
      />
      <path
        d="M43.4104 45.5272H35.825V82.6458H43.4104V45.5272Z"
        fill="#D39ED6"
      />
      <path
        d="M59.5074 0C26.696 0 0 26.696 0 59.5074C0 92.3187 26.696 119.015 59.5074 119.015C92.3187 119.015 119.015 92.3187 119.015 59.5074C119.015 26.696 92.304 0 59.5074 0ZM47.1149 84.1894C47.1149 85.3801 46.1447 86.365 44.9392 86.365H34.2667C33.076 86.365 32.091 85.3948 32.091 84.1894V43.9837C32.091 42.793 33.0613 41.808 34.2667 41.808H44.9392C46.13 41.808 47.1149 42.7783 47.1149 43.9837V84.1894ZM39.6177 38.1917C35.4427 38.1917 32.0469 34.7959 32.0469 30.621C32.0469 26.4461 35.4427 23.0503 39.6177 23.0503C43.7926 23.0503 47.1884 26.4461 47.1884 30.621C47.1884 34.7959 43.7926 38.1917 39.6177 38.1917ZM88.4378 84.5275C88.4378 85.5271 87.6293 86.3503 86.615 86.3503H75.9718C74.9722 86.3503 74.149 85.5418 74.149 84.5275V60.3159C74.149 58.1843 72.3849 56.4644 70.2387 56.5232C68.1806 56.582 66.5636 58.3313 66.5636 60.3894V84.4834C66.5636 85.5124 65.7256 86.3356 64.7113 86.3356H53.6272C52.4805 86.3356 51.5544 85.4095 51.5544 84.2629V43.8661C51.5544 42.7195 52.4805 41.7933 53.6272 41.7933H64.4908C65.6374 41.7933 66.5636 42.7195 66.5636 43.8661V44.7481C68.4011 43.8514 70.4151 43.3516 72.4878 43.3075C75.8248 43.2487 79.0589 44.3806 81.6168 46.5122C85.9387 50.1285 88.4231 55.4206 88.4231 61.0509V84.5275H88.4378Z"
        fill="url(#paint0_linear_1_24)"
        fill-opacity="0.37"
        style="mix-blend-mode: color-dodge"
      />
      <path
        d="M79.2353 49.3788C77.3684 47.8205 75.0016 46.9826 72.5613 47.0414C70.1211 47.0855 67.769 47.9969 65.9461 49.6287C65.1817 50.3049 64.0057 50.2314 63.3295 49.467C63.0208 49.1141 62.859 48.6731 62.859 48.2321V45.5272H55.2736V82.6458H62.859V60.3306C62.859 56.1998 66.2254 52.8334 70.3563 52.8334C74.4871 52.8334 77.8535 56.1998 77.8535 60.3306V82.6458H84.7039V61.0656C84.7039 56.5379 82.7046 52.2747 79.2353 49.3788Z"
        fill="#D39ED6"
      />
    </g>
  </g>
  <defs>
    <linearGradient
      id="paint0_linear_1_24"
      x1="89.2463"
      y1="111.018"
      x2="29.7537"
      y2="7.98233"
      gradientUnits="userSpaceOnUse"
    >
      <stop stop-color="#E992BC" />
      <stop offset="0.76" stop-color="#8E378B" />
      <stop offset="1" stop-color="#FACF88" />
    </linearGradient>
    <clipPath id="clip0_1_24">
      <rect width="119" height="119" fill="white" />
    </clipPath>
    <clipPath id="clip1_1_24">
      <rect width="119" height="119" fill="white" />
    </clipPath>
  </defs>
</svg>
