<svg
  width="227"
  height="46"
  viewBox="0 0 227 46"
  fill="none"
  xmlns="http://www.w3.org/2000/svg"
>
  <path
    d="M20.7944 35.8672C20.2182 36.2803 19.968 37.018 20.1885 37.6893C20.3553 38.1983 20.4627 38.8586 20.3034 39.5834C19.8735 41.5383 18.1539 42.7887 16.1527 42.5692C14.3239 42.3682 12.8711 40.7821 12.8619 38.9526C12.8545 37.5547 13.44 36.4481 14.5981 35.6533C17.2849 33.8072 19.9754 31.9647 22.6641 30.1223C23.4923 29.5543 24.3225 28.9863 25.1489 28.4182C25.1897 28.4422 25.2212 28.4588 25.2527 28.4809C28.7159 30.8563 32.1883 33.217 35.6367 35.6127C36.83 36.4408 37.3081 37.6543 37.1116 39.0688C36.8096 41.2358 34.8566 42.6153 32.6942 42.2576C30.743 41.9348 29.4144 40.0721 29.609 38.1246C29.6349 37.8645 29.6924 37.6229 29.7646 37.4072C29.9888 36.7322 29.7405 35.9908 29.1587 35.5776L29.0698 35.5131C28.1711 34.8713 26.8981 35.2752 26.5534 36.3209C26.2329 37.2928 26.0309 38.5949 26.3366 40.1274C26.6276 41.5807 27.7338 43.2405 28.8493 44.1332C30.541 45.4869 33.2649 46.3205 36.237 45.1088C39.4945 43.7791 41.2623 40.1035 40.3339 36.7635C39.8429 34.9985 38.7626 33.6485 37.2654 32.6158C35.1846 31.1809 33.0963 29.7535 31.0117 28.3242C30.0667 27.6768 29.1235 27.0276 28.1525 26.3619C28.8789 25.8639 29.583 25.3899 30.2779 24.8975C30.428 24.7906 30.5206 24.8072 30.6633 24.9012C33.4242 26.7436 36.1814 28.5916 38.9535 30.4174C40.5007 31.4391 42.2147 31.7969 44.0436 31.4944C47.9848 30.8434 50.6198 27.1328 49.936 23.2303C49.4302 20.3385 47.201 18.0129 44.2678 17.4615C41.3345 16.91 39.3167 18.0387 38.1141 19.1231C37.2969 19.859 37.4192 21.1703 38.3624 21.7383C38.392 21.7549 38.4198 21.7733 38.4495 21.7899C39.0628 22.1588 39.8411 22.0887 40.3821 21.6221C41.0066 21.0817 42.0368 20.5358 43.5322 20.7811C45.046 21.0301 46.2301 22.1938 46.5544 23.6895C46.8712 25.1613 46.2449 26.7049 44.983 27.5533C43.7138 28.4072 42.0479 28.4145 40.7768 27.568C38.6663 26.1627 36.5557 24.7574 34.4452 23.352C34.0524 23.0902 33.2482 22.5553 33.2482 22.5553C33.2482 22.5553 33.3056 22.4871 33.3279 22.4613C34.6768 20.9803 35.5181 19.2412 35.9962 17.3139C36.4965 15.2963 36.6095 13.2418 36.5706 11.1781C36.5557 10.4201 36.4779 9.66209 36.3112 8.92069C34.8529 2.51004 28.4064 -1.34631 22.0415 0.43525C18.5023 1.42746 15.9823 3.65348 14.5295 7.02111C13.8866 8.51127 13.7198 10.1047 13.7031 11.7129C13.6864 13.3506 13.7532 14.9846 14.0793 16.5965C14.5166 18.758 15.5876 20.6059 16.9403 22.3156C16.9792 22.3654 17.0162 22.417 17.0626 22.4779C16.9829 22.5313 16.918 22.5774 16.8513 22.6217C14.9687 23.85 13.0879 25.0801 11.2053 26.3065C10.4753 26.7824 9.74704 27.2656 9.00215 27.7174C8.22205 28.1895 7.35857 28.3186 6.47471 28.1305C4.89042 27.7912 3.85276 26.8211 3.50811 25.2276C3.20422 23.826 3.73232 22.3469 4.87374 21.4727C6.14117 20.5045 7.55313 20.4621 8.97806 21.1795C9.21524 21.2994 9.43204 21.4432 9.62845 21.6111C10.1806 22.0813 10.9607 22.1717 11.5815 21.7973C11.6074 21.7826 11.6334 21.766 11.6593 21.7512C12.6154 21.1758 12.7229 19.8461 11.8835 19.1139C10.7199 18.0996 8.8113 17.0594 6.06705 17.4227C1.84229 17.9815 -0.881567 22.2676 0.261713 26.3563C1.20487 29.7295 4.41791 31.9149 7.92002 31.5442C9.04292 31.4262 10.1158 31.1145 11.0701 30.4912C12.6933 29.4344 14.3053 28.361 15.923 27.2951C17.1626 26.4781 18.4041 25.6574 19.6474 24.844C19.7086 24.8035 19.8105 24.7445 19.8105 24.7445C19.8105 24.7445 21.3892 25.8289 22.1582 26.3563C21.9655 26.4947 21.8451 26.5463 21.6134 26.7031C19.5566 28.0899 17.4832 29.5432 15.1429 31.1108C14.0719 31.8283 12.9527 32.5567 11.9891 33.4272C10.0695 35.1608 9.14112 37.3076 9.52654 39.9153C10.1065 43.8362 13.8514 46.6026 17.7722 45.8871C19.9458 45.4905 21.3485 44.4098 22.2397 43.3069C23.4442 41.8168 23.7277 40.1735 23.7573 38.7479C23.774 37.9217 23.6258 37.1895 23.4219 36.5828C23.0717 35.5408 21.8024 35.1424 20.9075 35.7842L20.7981 35.8635L20.7944 35.8672ZM26.32 23.5088C25.9735 23.7467 25.627 23.9883 25.2749 24.2207C25.2212 24.2557 25.1137 24.2742 25.0692 24.2447C24.3336 23.7504 23.6054 23.2469 22.8549 22.7305C23.1106 22.5627 23.3497 22.4041 23.5887 22.2473C24.0575 21.9375 24.5244 21.6258 24.9988 21.3252C25.0618 21.2865 25.1897 21.2754 25.2471 21.3123C25.966 21.7789 26.6776 22.2565 27.4243 22.7545C27.0371 23.0201 26.6794 23.2654 26.3218 23.5106L26.32 23.5088ZM27.239 14.3447C26.9463 15.5158 26.2755 16.4545 25.2564 17.0797C25.1971 17.1166 25.0692 17.1111 25.0081 17.0705C23.8852 16.3568 23.1736 15.3498 23.0143 14.033C22.9012 13.1016 22.866 12.1537 22.879 11.2131C22.8957 10.0586 23.9408 9.07746 25.1118 9.0627C26.2866 9.04795 27.3057 9.97377 27.4021 11.1264C27.4317 11.4768 27.3984 11.8328 27.4058 12.185C27.4206 12.825 27.3965 13.7029 27.2372 14.3428L27.239 14.3447ZM33.1685 12.0338C33.1241 13.5295 33.0481 15.0215 32.6923 16.484C32.3236 18.0037 31.6435 19.3555 30.5225 20.4713C30.4706 20.5229 30.4169 20.5727 30.352 20.6336C29.6201 20.1449 28.89 19.6598 28.184 19.1895C28.5843 18.7174 29.0031 18.2785 29.3588 17.7953C30.1834 16.674 30.6022 15.3867 30.7208 14.0164C30.8041 13.05 30.8356 12.0744 30.8153 11.1043C30.7634 8.4836 28.6047 6.11926 25.992 5.7707C22.8716 5.35574 20.1329 7.31434 19.54 10.4016C19.4955 10.6303 19.4714 10.8645 19.4658 11.0969C19.4306 12.5078 19.4455 13.9168 19.7864 15.3C20.1385 16.7348 20.8667 17.9502 21.9359 18.9701C21.9933 19.0254 22.0619 19.0715 22.1434 19.1361C21.3929 19.6303 20.6777 20.1024 19.9532 20.5801C19.9161 20.5469 19.8735 20.5211 19.842 20.4842C18.6431 19.0789 17.6963 17.5408 17.3683 15.691C17.107 14.2193 17.0551 12.7346 17.1107 11.2426C17.1515 10.16 17.2979 9.09037 17.7685 8.10738C18.9822 5.5752 20.9779 4.00205 23.7647 3.51885C27.6226 2.85123 31.3193 4.98689 32.6701 8.60348C33.0851 9.71188 33.2019 10.8609 33.1667 12.0357H33.1685V12.0338Z"
    fill="#F267B7"
  />
  <path
    d="M179.174 14.0201V15.7403C175.531 12.3956 170.166 12.7382 166.965 15.9871C163.863 19.1354 163.531 24.0997 166.217 27.6313C167.565 29.4019 169.338 30.5328 171.514 30.9377C174.399 31.4744 176.95 30.7101 179.195 28.7262V30.4489H181.979V14.0201H179.174ZM173.177 28.3069C169.867 28.3022 167.174 25.5756 167.178 22.2309C167.183 18.8862 169.884 16.1812 173.206 16.1932C176.528 16.2027 179.193 18.9149 179.188 22.2764C179.181 25.5996 176.478 28.3141 173.177 28.3093V28.3069ZM93.164 24.4926C91.6857 28.2447 87.0157 29.5169 83.8953 26.994C83.3519 26.5555 82.8346 26.05 82.4122 25.4941C81.0905 23.7451 79.8114 21.9625 78.5348 20.1776C77.5334 18.7808 76.5273 17.3911 75.3147 16.1668C73.1672 14.0009 70.6044 13.0425 67.5813 13.4977C62.7974 14.2165 59.4967 18.8119 60.2655 23.6421C61.3049 30.1782 68.8224 33.2953 74.1116 29.3827C75.0039 28.7214 75.7869 27.9428 76.4941 27.0874C77.1182 26.3303 77.7161 25.5516 78.3426 24.761C78.4114 24.8544 78.4707 24.9407 78.5372 25.0221C79.3914 26.0859 80.2054 27.1833 81.1071 28.2015C82.6186 29.9074 84.5455 30.8514 86.7974 31.0647C90.6155 31.4264 94.2176 29.215 95.6912 25.6427C95.7766 25.4342 95.8478 25.221 95.9332 24.9862C95.0386 24.6939 94.1772 24.4112 93.3064 24.1237C93.2542 24.2578 93.2091 24.3728 93.164 24.4878V24.4926ZM76.5249 22.4801C75.5924 23.7858 74.6503 25.082 73.5089 26.2153C72.6831 27.0371 71.7885 27.7583 70.6377 28.053C70.08 28.1943 69.5058 28.2638 68.9386 28.3668C65.7826 28.3022 63.2103 25.9014 62.9564 22.655C62.7191 19.6121 64.8144 16.8257 67.8945 16.2866C69.7431 15.9632 71.4136 16.4088 72.8397 17.6762C73.9076 18.625 74.7761 19.7487 75.6161 20.8964C75.9198 21.3109 76.2093 21.7397 76.5131 22.1542C76.5961 22.2692 76.6127 22.3555 76.5226 22.4801H76.5249ZM155.017 13.4738C152.298 13.1048 149.906 13.8931 147.796 15.7595V14.0488H145.044V36.3956H147.787V28.7214C149.685 30.4106 151.816 31.218 154.263 31.0862C156.723 30.952 158.785 29.9386 160.406 28.0698C163.28 24.7562 163.313 19.8517 160.494 16.5166C159.051 14.8107 157.219 13.7733 155.015 13.4738H155.017ZM153.783 28.3069C150.461 28.2902 147.787 25.5708 147.801 22.2213C147.815 18.855 150.513 16.1692 153.862 16.1932C157.15 16.2171 159.81 18.9317 159.806 22.2572C159.799 25.6043 157.093 28.3237 153.786 28.3069H153.783ZM115.883 13.3851C111.011 13.3756 107.062 17.3288 107.058 22.2237C107.053 27.1306 110.978 31.0958 115.845 31.1006C120.688 31.1054 124.624 27.1377 124.629 22.2477C124.632 17.372 120.707 13.3947 115.885 13.3827L115.883 13.3851ZM115.828 28.3069C112.496 28.2926 109.829 25.5684 109.841 22.1949C109.855 18.8694 112.553 16.1812 115.873 16.1932C119.188 16.2051 121.865 18.9317 121.851 22.2836C121.836 25.6043 119.122 28.3213 115.828 28.3093V28.3069ZM130.901 18.1291C128.545 20.6544 128.813 24.6843 131.482 26.9197C134.259 29.2438 138.558 28.6064 140.518 25.2905C141.304 25.7457 142.092 26.2009 142.877 26.6586C141.458 29.3564 137.996 31.6421 133.931 31C129.869 30.3603 126.729 26.9317 126.537 22.7316C126.338 18.3998 129.057 14.7053 133.16 13.6559C137.154 12.6328 141.1 14.5999 142.889 17.8296C142.094 18.2896 141.316 18.7424 140.521 19.2024C139.289 17.2737 137.569 16.2075 135.277 16.198C133.544 16.1908 132.083 16.8616 130.899 18.1291H130.901ZM105.781 27.6169V30.4393C105.041 30.4705 104.298 30.4705 103.565 30.3075C100.316 29.5864 98.0618 26.7664 98.0594 23.4145C98.057 19.1929 98.0594 14.9712 98.0594 10.7496V10.4334C98.9896 10.1554 99.896 9.88469 100.838 9.60437V14.0105H105.771V16.8065H100.843V17.1108C100.843 19.2168 100.838 21.3228 100.843 23.4288C100.85 25.5876 102.319 27.3102 104.431 27.6097C104.865 27.672 105.318 27.6193 105.781 27.6193V27.6169ZM79.3202 18.8311C79.2704 18.7616 79.2491 18.6059 79.2918 18.546C80.1674 17.3408 81.0691 16.1572 82.2485 15.2276C86.8686 11.5882 93.8071 13.5936 95.8146 19.1497C95.8359 19.212 95.8549 19.2743 95.8858 19.3654C95.003 19.6696 94.1535 19.9643 93.2826 20.2662C93.2423 20.1776 93.2043 20.1057 93.1735 20.029C91.5907 16.0302 86.6052 14.9042 83.4848 17.844C82.6044 18.6729 81.902 19.6481 81.2067 20.628C81.1237 20.743 81.043 20.8604 80.9505 20.9898C80.8983 20.9347 80.8579 20.8964 80.8247 20.8532C80.3216 20.1824 79.8138 19.5139 79.3202 18.8335V18.8311Z"
    fill="white"
  />
</svg>
