<svg
  width="291"
  height="73"
  viewBox="0 0 291 73"
  fill="none"
  xmlns="http://www.w3.org/2000/svg"
>
  <path
    d="M33.2523 56.9197C32.3308 57.5752 31.9307 58.746 32.2833 59.8113C32.55 60.6191 32.7219 61.6669 32.4671 62.8171C31.7796 65.9194 29.0299 67.9038 25.8298 67.5555C22.9052 67.2365 20.5822 64.7195 20.5674 61.8161C20.5555 59.5976 21.4918 57.8416 23.3438 56.5802C27.6402 53.6505 31.9426 50.7266 36.242 47.8028C37.5665 46.9014 38.8939 45.9999 40.2155 45.0985C40.2807 45.1365 40.331 45.1629 40.3814 45.198C45.9194 48.9676 51.4722 52.7139 56.9864 56.5158C58.8947 57.8299 59.6591 59.7557 59.345 62.0005C58.8621 65.4395 55.739 67.6287 52.2811 67.0609C49.161 66.5487 47.0365 63.5927 47.3476 60.502C47.3891 60.0893 47.4809 59.7059 47.5965 59.3635C47.955 58.2923 47.558 57.1157 46.6276 56.4602L46.4853 56.3577C45.0482 55.3392 43.0126 55.9802 42.4615 57.6396C41.9489 59.182 41.6259 61.2483 42.1148 63.6805C42.58 65.9868 44.349 68.6208 46.1327 70.0374C48.838 72.1856 53.1937 73.5085 57.9465 71.5857C63.1556 69.4755 65.9823 63.6424 64.4978 58.3421C63.7126 55.5411 61.9851 53.3988 59.591 51.7598C56.2635 49.4828 52.9241 47.2174 49.5906 44.9492C48.0795 43.9219 46.5713 42.8917 45.0186 41.8351C46.1801 41.0449 47.3061 40.2927 48.4172 39.5113C48.6573 39.3415 48.8054 39.3679 49.0336 39.5171C53.4485 42.441 57.8576 45.3736 62.2903 48.2711C64.7645 49.8925 67.5053 50.4603 70.4299 49.9803C76.7323 48.9472 80.9458 43.0585 79.8524 36.8655C79.0435 32.2763 75.479 28.5857 70.7884 27.7106C66.0979 26.8355 62.8711 28.6267 60.9481 30.3476C59.6414 31.5154 59.8369 33.5963 61.3451 34.4977C61.3925 34.5241 61.437 34.5533 61.4844 34.5797C62.4652 35.165 63.7096 35.0538 64.5749 34.3134C65.5734 33.4558 67.2209 32.5895 69.6121 32.9787C72.0329 33.3739 73.9263 35.2206 74.4448 37.5943C74.9515 39.9298 73.95 42.3795 71.9322 43.7258C69.9025 45.0809 67.2387 45.0926 65.206 43.7492C61.8311 41.519 58.4561 39.2888 55.0812 37.0587C54.453 36.6431 53.167 35.7943 53.167 35.7943C53.167 35.7943 53.2589 35.686 53.2945 35.645C55.4516 33.2948 56.7968 30.5349 57.5613 27.4764C58.3613 24.2746 58.5421 21.0142 58.4798 17.7391C58.4561 16.5362 58.3317 15.3333 58.065 14.1567C55.7331 3.98333 45.4245 -2.13653 35.2464 0.690722C29.587 2.26532 25.5572 5.79792 23.2341 11.1422C22.2059 13.507 21.9393 16.0357 21.9126 18.5879C21.8859 21.1868 21.9926 23.7799 22.5141 26.3379C23.2134 29.7681 24.926 32.7007 27.0891 35.4138C27.1513 35.4928 27.2106 35.5748 27.2846 35.6714C27.1572 35.7562 27.0535 35.8294 26.9469 35.8997C23.9364 37.8489 20.9289 39.801 17.9184 41.7473C16.7509 42.5024 15.5865 43.2692 14.3953 43.9863C13.1478 44.7355 11.7671 44.9404 10.3537 44.6419C7.82025 44.1034 6.16093 42.5639 5.6098 40.0352C5.12386 37.8108 5.96833 35.4636 7.79358 34.0763C9.82032 32.5397 12.0782 32.4724 14.3568 33.6109C14.7361 33.8012 15.0827 34.0295 15.3968 34.2958C16.2798 35.0421 17.5273 35.1855 18.5199 34.5914C18.5614 34.568 18.6029 34.5416 18.6443 34.5182C20.1733 33.6051 20.3451 31.4949 19.0029 30.333C17.1421 28.7232 14.0901 27.0725 9.7018 27.6491C2.946 28.5359 -1.40971 35.3377 0.418504 41.8264C1.92671 47.1794 7.06467 50.6476 12.6649 50.0593C14.4605 49.872 16.1761 49.3774 17.7021 48.3881C20.2977 46.7111 22.8756 45.0077 25.4624 43.3161C27.4447 42.0195 29.4299 40.7171 31.4181 39.4264C31.5159 39.362 31.6789 39.2684 31.6789 39.2684C31.6789 39.2684 34.2034 40.9893 35.4331 41.8264C35.1249 42.0459 34.9323 42.1278 34.5619 42.3766C31.2729 44.5775 27.9573 46.8838 24.2149 49.3715C22.5023 50.51 20.7126 51.6661 19.1718 53.0476C16.102 55.7987 14.6175 59.2055 15.2338 63.3439C16.1613 69.5662 22.1497 73.9563 28.4195 72.8207C31.8952 72.1915 34.1382 70.4764 35.5635 68.7262C37.4895 66.3614 37.9428 63.7536 37.9902 61.4913C38.0169 60.1801 37.7798 59.0181 37.4539 58.0552C36.8939 56.4016 34.8642 55.7694 33.433 56.788L33.2582 56.9138L33.2523 56.9197ZM42.0881 37.3074C41.534 37.685 40.9799 38.0684 40.417 38.4372C40.331 38.4928 40.1592 38.522 40.0881 38.4752C38.9117 37.6908 37.7472 36.8918 36.5472 36.0723C36.9561 35.806 37.3383 35.5543 37.7206 35.3055C38.4702 34.8138 39.2169 34.3192 39.9755 33.8421C40.0762 33.7807 40.2807 33.7631 40.3725 33.8217C41.5222 34.5621 42.66 35.3202 43.8541 36.1104C43.2348 36.5318 42.663 36.9211 42.0911 37.3104L42.0881 37.3074ZM43.5578 22.7644C43.0897 24.6228 42.017 26.1126 40.3873 27.1047C40.2925 27.1633 40.0881 27.1545 39.9903 27.0901C38.1947 25.9574 37.0568 24.3594 36.802 22.2697C36.6213 20.7917 36.565 19.2874 36.5857 17.7947C36.6124 15.9626 38.2836 14.4055 40.1562 14.3821C42.0348 14.3587 43.6645 15.8279 43.8186 17.6572C43.866 18.2132 43.8126 18.7781 43.8245 19.3371C43.8482 20.3527 43.8097 21.7458 43.5549 22.7614L43.5578 22.7644ZM53.0396 19.0971C52.9685 21.4707 52.847 23.8385 52.2781 26.1594C51.6885 28.571 50.601 30.7164 48.8084 32.4871C48.7254 32.569 48.6395 32.648 48.5358 32.7446C47.3654 31.969 46.1979 31.1993 45.069 30.453C45.709 29.7037 46.3787 29.0071 46.9476 28.2403C48.2661 26.4609 48.9358 24.418 49.1254 22.2434C49.2588 20.7098 49.3091 19.1615 49.2765 17.622C49.1936 13.4631 45.7416 9.711 41.5637 9.15784C36.5739 8.49932 32.1945 11.6075 31.2463 16.5069C31.1752 16.8699 31.1366 17.2416 31.1277 17.6103C31.0714 19.8493 31.0952 22.0853 31.6404 24.2804C32.2033 26.5574 33.3678 28.4862 35.0775 30.1047C35.1694 30.1925 35.279 30.2656 35.4094 30.3681C34.2093 31.1525 33.0656 31.9017 31.907 32.6597C31.8478 32.607 31.7796 32.5661 31.7292 32.5075C29.8121 30.2773 28.298 27.8364 27.7736 24.9009C27.3558 22.5653 27.2728 20.2093 27.3617 17.8415C27.4269 16.1235 27.661 14.426 28.4136 12.866C30.3544 8.8476 33.5456 6.35108 38.0021 5.58427C44.1712 4.52478 50.0825 7.91397 52.2426 13.6533C52.9063 15.4123 53.093 17.2357 53.0367 19.1H53.0396V19.0971Z"
    fill="#F267B7"
  />
  <path
    d="M286.515 22.2497V24.9797C280.69 19.6718 272.111 20.2155 266.992 25.3713C262.032 30.3674 261.501 38.2456 265.796 43.8501C267.952 46.66 270.786 48.4546 274.266 49.0972C278.88 49.9489 282.959 48.736 286.549 45.5877V48.3215H291V22.2497H286.515ZM276.926 44.9224C271.633 44.9148 267.326 40.5878 267.333 35.2799C267.341 29.972 271.659 25.6793 276.971 25.6983C282.284 25.7135 286.545 30.0176 286.538 35.3522C286.526 40.6258 282.204 44.9338 276.926 44.9262V44.9224ZM148.977 38.8692C146.613 44.8235 139.145 46.8425 134.156 42.8387C133.287 42.1429 132.459 41.3407 131.784 40.4585C129.67 37.6829 127.625 34.8541 125.584 32.0214C123.982 29.8047 122.373 27.5994 120.434 25.6565C117 22.2193 112.902 20.6984 108.068 21.4208C100.418 22.5615 95.1398 29.8541 96.3693 37.5194C98.0313 47.8919 110.052 52.8386 118.511 46.6296C119.937 45.5801 121.189 44.3444 122.32 42.987C123.318 41.7855 124.274 40.5498 125.276 39.2951C125.386 39.4434 125.481 39.5802 125.587 39.7095C126.953 41.3977 128.255 43.1391 129.697 44.7551C132.114 47.4622 135.195 48.9603 138.796 49.2987C144.902 49.8729 150.662 46.3634 153.018 40.6943C153.155 40.3635 153.269 40.0251 153.405 39.6525C151.975 39.1886 150.597 38.7399 149.205 38.2837C149.121 38.4966 149.049 38.6791 148.977 38.8616V38.8692ZM122.37 35.6753C120.878 37.7476 119.372 39.8046 117.547 41.603C116.226 42.9072 114.796 44.0516 112.955 44.5193C112.064 44.7437 111.145 44.8539 110.238 45.0174C105.192 44.9148 101.078 41.1049 100.672 35.9529C100.293 31.1241 103.643 26.7021 108.569 25.8466C111.525 25.3333 114.196 26.0405 116.477 28.0519C118.184 29.5576 119.573 31.3408 120.916 33.1621C121.402 33.8199 121.865 34.5005 122.351 35.1582C122.483 35.3408 122.51 35.4776 122.366 35.6753H122.37ZM247.886 21.3828C243.538 20.7972 239.713 22.0482 236.339 25.0101V22.2953H231.938V57.7587H236.324V45.5801C239.36 48.2607 242.767 49.5421 246.679 49.3329C250.614 49.12 253.912 47.5117 256.504 44.5459C261.099 39.2875 261.152 31.5043 256.644 26.2116C254.337 23.5044 251.408 21.8581 247.882 21.3828H247.886ZM245.913 44.9224C240.601 44.8957 236.324 40.5802 236.347 35.2647C236.37 29.9226 240.684 25.6603 246.038 25.6983C251.297 25.7363 255.551 30.0443 255.544 35.3217C255.532 40.6334 251.206 44.949 245.917 44.9224H245.913ZM185.306 21.2421C177.516 21.2269 171.202 27.5006 171.194 35.2685C171.187 43.0555 177.463 49.3481 185.246 49.3558C192.99 49.3634 199.285 43.0669 199.293 35.3065C199.297 27.569 193.021 21.2573 185.31 21.2383L185.306 21.2421ZM185.219 44.9224C179.891 44.8995 175.626 40.5764 175.645 35.2229C175.668 29.9454 179.982 25.6793 185.291 25.6983C190.592 25.7173 194.872 30.0443 194.85 35.3636C194.827 40.6334 190.486 44.9452 185.219 44.9262V44.9224ZM209.322 28.7705C205.554 32.7781 205.983 39.1734 210.252 42.7209C214.691 46.409 221.567 45.3976 224.701 40.1354C225.957 40.8578 227.217 41.5802 228.473 42.3064C226.204 46.5877 220.668 50.2151 214.168 49.1961C207.671 48.1809 202.651 42.7399 202.344 36.0746C202.025 29.2002 206.374 23.3371 212.934 21.6718C219.321 20.0482 225.631 23.1698 228.492 28.2952C227.221 29.0253 225.976 29.7439 224.705 30.4739C222.736 27.4131 219.985 25.7211 216.319 25.7059C213.549 25.6945 211.212 26.7591 209.318 28.7705H209.322ZM169.153 43.8273V48.3063C167.969 48.3558 166.781 48.3558 165.609 48.0972C160.414 46.9527 156.809 42.4775 156.805 37.1582C156.801 30.4587 156.805 23.7592 156.805 17.0597V16.5578C158.293 16.1167 159.742 15.687 161.249 15.2422V22.2345H169.138V26.6717H161.256V27.1546C161.256 30.4967 161.249 33.8389 161.256 37.181C161.268 40.6068 163.616 43.3406 166.994 43.8159C167.688 43.9148 168.413 43.8311 169.153 43.8311V43.8273ZM126.84 29.8846C126.76 29.7743 126.726 29.5271 126.794 29.4321C128.194 27.5196 129.636 25.6413 131.522 24.166C138.91 18.3904 150.005 21.5729 153.216 30.3903C153.25 30.4891 153.28 30.588 153.329 30.7325C151.918 31.2153 150.559 31.683 149.167 32.1621C149.102 32.0214 149.042 31.9073 148.992 31.7857C146.461 25.4398 138.489 23.6527 133.499 28.318C132.091 29.6336 130.968 31.1811 129.856 32.7362C129.723 32.9187 129.594 33.105 129.446 33.3104C129.363 33.2229 129.298 33.1621 129.245 33.0936C128.441 32.029 127.629 30.9682 126.84 29.8884V29.8846Z"
    fill="white"
  />
</svg>
