<svg width="192" height="44" viewBox="0 0 192 44" fill="none" xmlns="http://www.w3.org/2000/svg">
<path d="M23.4237 11.1814C22.772 11.1814 22.1586 11.2672 21.5842 11.4383C21.0086 11.6155 20.457 11.8589 19.9316 12.1697C19.4043 12.4837 18.8993 12.8608 18.415 13.3037C17.9295 13.7466 17.4508 14.2393 16.9805 14.7824C16.08 12.3836 14.1265 11.1814 11.1199 11.1814C10.0382 11.1814 8.99584 11.4343 7.99179 11.9399C6.98614 12.445 6.03509 13.2083 5.13427 14.2198V11.6398H0V32.0045H5.27976V17.9449C6.00042 17.0295 6.72705 16.3325 7.46245 15.8505C8.19547 15.3733 8.94323 15.1351 9.70573 15.1351C10.6337 15.1351 11.3025 15.4407 11.7119 16.0608C12.1204 16.676 12.3253 17.6927 12.3253 19.1091V32.0045H17.6027V17.9449C18.311 17.0295 19.0304 16.3325 19.7654 15.8505C20.4988 15.3733 21.2406 15.1351 21.9896 15.1351C22.9314 15.1351 23.6067 15.4407 24.0156 16.0608C24.4242 16.676 24.629 17.6927 24.629 19.1091V32.0045H29.9068V18.6934C29.9068 13.6851 27.746 11.1814 23.4237 11.1814Z" fill="white"/>
<path d="M39.1764 19.733C39.3849 17.9591 39.9003 16.6332 40.7246 15.7598C41.5489 14.8827 42.6055 14.4486 43.8942 14.4486C45.1968 14.4486 46.2602 14.8827 47.0841 15.7598C47.9088 16.6332 48.4254 17.9591 48.6331 19.733H39.1764ZM51.2415 13.8956C50.3614 13.0038 49.3011 12.3263 48.0619 11.8679C46.8207 11.4102 45.4324 11.1812 43.8942 11.1812C42.2867 11.1812 40.8569 11.4198 39.6025 11.897C38.3482 12.3786 37.2863 13.0749 36.413 13.991C35.5401 14.9059 34.8712 16.0219 34.4069 17.339C33.9425 18.6553 33.7109 20.1524 33.7109 21.8318C33.7109 23.4821 33.9457 24.9659 34.4176 26.2858C34.8884 27.6034 35.5668 28.7198 36.4541 29.6347C37.3409 30.5512 38.4315 31.2566 39.7277 31.7474C41.0227 32.2382 42.5091 32.4875 44.1856 32.4875C45.4324 32.4875 46.5851 32.3443 47.6453 32.0582C48.7052 31.7757 49.6403 31.3516 50.4514 30.7886C51.2618 30.2256 51.933 29.5397 52.4671 28.7198C53.0008 27.9042 53.3644 26.9646 53.5585 25.91H48.6331C48.2863 27.0647 47.7322 27.8747 46.9705 28.3471C46.208 28.8143 45.2801 29.0537 44.1856 29.0537C43.4789 29.0537 42.8272 28.934 42.2325 28.7002C41.6358 28.462 41.1172 28.0989 40.6736 27.6081C40.2295 27.1166 39.8728 26.483 39.6025 25.7145C39.3319 24.9416 39.1764 24.0251 39.135 22.9574H53.9742V21.6889C53.9742 20.0095 53.739 18.5169 53.2683 17.2045C52.796 15.8942 52.1207 14.7922 51.2415 13.8956Z" fill="white"/>
<path d="M64.2136 28.3471C63.9781 28.2613 63.7768 28.1037 63.6114 27.8747C63.4448 27.6461 63.3192 27.3309 63.2375 26.9219C63.1538 26.5109 63.1123 25.9814 63.1123 25.3283V15.5324H66.4163V11.6401H63.1123V9.39969H57.8545C57.8545 9.39969 57.8589 25.4284 57.8637 25.9435C57.8704 26.74 57.9266 27.4701 58.0307 28.1381C58.1339 28.8044 58.2977 29.3965 58.5189 29.9164C58.7406 30.4363 59.0694 30.8752 59.5067 31.2375C59.9423 31.6006 60.5 31.8763 61.1788 32.067C61.858 32.2625 62.7034 32.3579 63.7146 32.3579C64.2958 32.3579 64.8331 32.3348 65.3253 32.2773C65.8172 32.2207 66.2911 32.1432 66.7491 32.0487V28.3663C66.1384 28.4337 65.5645 28.4708 65.024 28.4708C64.7191 28.4708 64.4484 28.4289 64.2136 28.3471Z" fill="white"/>
<path d="M82.3358 26.6589C82.0723 27.0208 81.757 27.3512 81.3907 27.646C81.024 27.9469 80.6242 28.1951 80.1954 28.395C79.7653 28.6001 79.3085 28.7569 78.8238 28.8766C78.3387 28.9955 77.8468 29.0537 77.3486 29.0537C76.2672 29.0537 75.4007 28.8191 74.751 28.3567C74.0993 27.8894 73.7744 27.1788 73.7744 26.2248C73.7744 24.9464 74.3133 24.0251 75.3939 23.4677C76.4765 22.9047 78.1103 22.6234 80.2994 22.6234H82.3358V26.6589ZM85.163 12.6982C84.2897 12.1304 83.3096 11.7354 82.2222 11.5152C81.1336 11.2913 79.8765 11.1812 78.4487 11.1812C72.5747 11.1812 69.4991 13.2756 69.2213 17.4627H73.9614C74.0574 16.4668 74.4552 15.7123 75.1555 15.2071C75.8551 14.7016 76.8918 14.4486 78.2622 14.4486C79.0243 14.4486 79.676 14.5296 80.2161 14.6872C80.7578 14.8448 81.1504 15.1066 81.4015 15.4689C81.6347 15.6744 81.8168 15.9178 81.94 16.1943C82.0663 16.4708 82.1616 16.7752 82.233 17.1104C82.3019 17.6107 82.3358 18.3936 82.3358 19.4613H80.5696C72.4499 19.4613 68.3906 21.8174 68.3906 26.5352C68.3906 27.5076 68.5744 28.3619 68.9411 29.1052C69.3086 29.8454 69.8064 30.4646 70.4378 30.965C71.0672 31.4661 71.8121 31.8432 72.6715 32.1001C73.5317 32.3579 74.4592 32.4875 75.4569 32.4875C76.8966 32.4875 78.186 32.2908 79.322 31.9006C80.4588 31.514 81.4772 30.9231 82.3776 30.1354V32.0044H87.5944V18.8365C87.5944 17.1874 87.3939 15.8834 86.9914 14.9254C86.59 13.9678 85.9801 13.2277 85.163 12.6982Z" fill="white"/>
<path d="M139.616 15.7558C140.194 15.0587 140.897 14.538 141.721 14.1777C142.545 13.8254 143.467 13.647 144.488 13.647C145.223 13.647 145.918 13.7476 146.562 13.9403C147.208 14.133 147.772 14.4163 148.256 14.7794C148.741 15.1465 149.129 15.5886 149.425 16.1085C149.721 16.6256 149.887 17.2085 149.927 17.8481H152.685C152.586 16.857 152.303 15.9604 151.839 15.1545C151.374 14.3521 150.775 13.6638 150.04 13.0924C149.305 12.5218 148.46 12.0857 147.507 11.7713C146.553 11.4617 145.54 11.3069 144.471 11.3069C143.032 11.3069 141.731 11.5551 140.566 12.0478C139.402 12.5434 138.408 13.2508 137.584 14.1673C136.76 15.0782 136.125 16.1875 135.681 17.481C135.236 18.779 135.015 20.2246 135.015 21.8242C135.015 23.4366 135.233 24.8849 135.673 26.1825C136.113 27.4804 136.744 28.5845 137.562 29.4966C138.382 30.4115 139.376 31.1205 140.546 31.6161C141.713 32.1077 143.023 32.3571 144.471 32.3571C145.601 32.3571 146.644 32.205 147.604 31.8994C148.564 31.5926 149.403 31.1545 150.122 30.5715C150.841 29.9882 151.422 29.2815 151.869 28.4373C152.313 27.6009 152.586 26.6401 152.685 25.5628H149.927C149.869 26.2818 149.695 26.9214 149.412 27.4729C149.125 28.0295 148.745 28.4979 148.271 28.8841C147.795 29.2696 147.231 29.5581 146.577 29.7548C145.924 29.9515 145.201 30.0456 144.413 30.0456C143.402 30.0456 142.493 29.8645 141.683 29.4966C140.874 29.1347 140.178 28.604 139.6 27.907C139.021 27.2159 138.578 26.3569 138.267 25.3346C137.957 24.3132 137.801 23.1433 137.801 21.8242C137.801 20.5031 137.959 19.3384 138.274 18.3213C138.588 17.3067 139.036 16.452 139.616 15.7558Z" fill="white"/>
<path d="M168.761 19.3164C168.587 19.7885 168.306 20.1827 167.92 20.5031C167.534 20.8263 167.042 21.0637 166.438 21.2225C165.833 21.3849 165.101 21.4647 164.241 21.4647H159.086V14.1126H164.152C164.811 14.1126 165.435 14.1593 166.025 14.2459C166.612 14.3365 167.131 14.5116 167.576 14.7726C168.022 15.0335 168.372 15.3958 168.634 15.8611C168.892 16.3227 169.022 16.9332 169.022 17.6845C169.022 18.3018 168.935 18.8508 168.761 19.3164ZM169.427 12.8877C168.706 12.446 167.879 12.1352 166.939 11.9608C165.998 11.7829 165.019 11.7003 164.002 11.7003H156.402V31.9948H159.086V23.8794H164.181C166.671 23.8794 168.559 23.3488 169.855 22.2894C171.148 21.2301 171.794 19.6743 171.794 17.6251C171.794 16.4404 171.58 15.4716 171.15 14.7044C170.722 13.9403 170.147 13.3346 169.427 12.8877Z" fill="white"/>
<path d="M178.84 23.67L182.242 14.2802L185.825 23.67H178.84ZM183.728 11.7003H180.82L173.04 31.9948H175.874L178.107 25.8274H186.607L188.958 31.9948H192L183.728 11.7003Z" fill="white"/>
<path d="M95.7745 1.03196C94.3735 3.14467 93.8725 5.67038 94.3679 8.14579C94.8598 10.6336 96.2923 12.7702 98.3933 14.1723L114.801 25.1421C116.359 26.1819 118.169 26.7325 120.039 26.7325C120.632 26.7325 121.224 26.6751 121.803 26.5705L121.986 26.535L128.768 22.0032L96.2784 0.285433L95.7745 1.03196Z" fill="url(#paint0_linear_816_3725)"/>
<path d="M114.801 18.8578L98.3933 29.8208C96.2923 31.2257 94.8598 33.3667 94.3679 35.8541C93.8725 38.3319 94.3735 40.8552 95.7745 42.9612L96.2784 43.7145L128.768 22.0031L121.984 17.4645L121.803 17.4346C121.221 17.3244 120.632 17.2682 120.039 17.2682C118.169 17.2682 116.359 17.8184 114.801 18.8578Z" fill="url(#paint1_linear_816_3725)"/>
<path d="M114.801 18.8577C116.359 17.8179 118.169 17.2681 120.039 17.2681C120.632 17.2681 121.221 17.3247 121.803 17.4345L121.959 17.4608C121.377 17.1432 119.094 16.0036 116.171 16.0036C113.172 16.0036 110.514 17.1747 108.263 19.4873L107.507 20.2694L110.098 22.0015L114.801 18.8577Z" fill="url(#paint2_linear_816_3725)"/>
<defs>
<linearGradient id="paint0_linear_816_3725" x1="93.2929" y1="4.58114" x2="125.933" y2="26.2117" gradientUnits="userSpaceOnUse">
<stop stop-color="#DA1C5C"/>
<stop offset="0.47619" stop-color="#ED1C24"/>
<stop offset="1" stop-color="#F9B836"/>
</linearGradient>
<linearGradient id="paint1_linear_816_3725" x1="93.1829" y1="39.4816" x2="135.581" y2="14.8414" gradientUnits="userSpaceOnUse">
<stop stop-color="#DA1C5C"/>
<stop offset="0.47619" stop-color="#ED1C24"/>
<stop offset="1" stop-color="#F9B836"/>
</linearGradient>
<linearGradient id="paint2_linear_816_3725" x1="107.438" y1="14.4647" x2="117.278" y2="20.4848" gradientUnits="userSpaceOnUse">
<stop stop-color="#DA1C5C"/>
<stop offset="0.47619" stop-color="#ED1C24"/>
<stop offset="1" stop-color="#ED1C24"/>
</linearGradient>
</defs>
</svg>
