<svg width="233" height="34" viewBox="0 0 233 34" fill="none" xmlns="http://www.w3.org/2000/svg">
<g id="Logo" clip-path="url(#clip0_1384_1874)">
<path id="Vector" d="M91.438 0.0361328C91.5501 0.0369795 91.6602 0.0659032 91.758 0.120252C91.855 0.177257 91.9368 0.256605 91.9966 0.351612C92.0657 0.445112 92.1094 0.554828 92.1233 0.670098C92.1357 0.785085 92.1169 0.901261 92.069 1.00661L82.837 22.3002C82.7986 22.4224 82.7199 22.5283 82.6136 22.6006C82.5074 22.67 82.3811 22.7028 82.2544 22.6938H79.7426C79.6527 22.6919 79.5633 22.7083 79.48 22.7419C79.3148 22.8181 79.1822 22.9501 79.1056 23.1144C79.0716 23.1984 79.0552 23.2884 79.0573 23.3788V33.2669C79.0581 33.3621 79.0386 33.4563 78.9999 33.5434C78.962 33.6307 78.9065 33.7094 78.8369 33.7747C78.7715 33.8442 78.6924 33.8995 78.6045 33.937C78.5166 33.974 78.4222 33.9934 78.3267 33.9941H68.2072C68.1117 33.9934 68.0173 33.974 67.9294 33.937C67.8406 33.8995 67.7604 33.8443 67.694 33.7747C67.625 33.7095 67.5705 33.6307 67.5339 33.5434C67.4953 33.4563 67.4758 33.3621 67.4766 33.2669V23.3728C67.4792 23.282 67.4617 23.1917 67.4253 23.1084C67.391 23.0255 67.3396 22.9508 67.2743 22.8891C67.2116 22.8241 67.1368 22.7721 67.0539 22.7358C66.9696 22.702 66.8792 22.6857 66.7883 22.6878H64.4093C64.2785 22.6856 64.1506 22.6485 64.039 22.5803C63.9275 22.5121 63.8364 22.4154 63.7753 22.3002L54.4498 0.96755C54.4159 0.89096 54.3994 0.807854 54.4015 0.724179C54.4091 0.550347 54.4811 0.38549 54.6038 0.261477C54.6636 0.192396 54.7377 0.137031 54.8211 0.0992176C54.9053 0.0609264 54.9973 0.0424242 55.0898 0.0451371H65.632C65.7588 0.036146 65.885 0.068872 65.9913 0.138279C66.0975 0.210644 66.1762 0.316473 66.2147 0.438738L70.879 11.054C70.9258 11.1787 71.0128 11.2843 71.1265 11.3544C71.2418 11.4232 71.3761 11.4537 71.5099 11.4416H74.9123C75.0462 11.4541 75.1806 11.4236 75.2957 11.3544C75.4094 11.2843 75.4964 11.1787 75.5432 11.054L80.2558 0.432742C80.2943 0.310476 80.373 0.204647 80.4792 0.132282C80.5855 0.0628753 80.7117 0.0301493 80.8385 0.0391403L91.438 0.0361328Z" fill="#FF3FF7"/>
<path id="Vector_2" d="M139.98 33.7444C139.911 33.6741 139.857 33.5902 139.823 33.498C139.788 33.4019 139.773 33.2997 139.778 33.1976V24.1838C139.773 24.0817 139.788 23.9796 139.823 23.8833C139.858 23.7924 139.912 23.7096 139.98 23.64C140.024 23.5633 140.088 23.4999 140.165 23.4565C140.242 23.4131 140.329 23.3913 140.418 23.3936H151.346C151.445 23.3989 151.543 23.3838 151.635 23.3491C151.727 23.3144 151.811 23.261 151.881 23.1923C151.946 23.1305 151.997 23.0558 152.032 22.9729C152.067 22.8892 152.084 22.7992 152.083 22.7085V11.2821C152.084 11.1915 152.067 11.1017 152.032 11.0181C151.997 10.9344 151.946 10.8586 151.881 10.7953C151.811 10.7266 151.727 10.6731 151.635 10.6385C151.543 10.6038 151.445 10.5887 151.346 10.594H140.424C140.34 10.5978 140.256 10.5814 140.179 10.5459C140.103 10.5105 140.036 10.4568 139.986 10.3897C139.915 10.3226 139.859 10.2418 139.82 10.1523C139.785 10.0561 139.77 9.954 139.775 9.85186V0.777982C139.77 0.675849 139.785 0.57378 139.82 0.477523C139.855 0.386642 139.909 0.30384 139.977 0.234151C140.019 0.156349 140.083 0.0919858 140.16 0.048418C140.238 0.00485013 140.326 -0.0161671 140.415 -0.0122278H175.199C175.293 -0.00389309 175.384 0.0215736 175.468 0.0628871C175.551 0.105058 175.625 0.163278 175.685 0.234151C175.803 0.388389 175.873 0.573035 175.887 0.76597V9.85186C175.873 10.0448 175.803 10.2294 175.685 10.3837C175.622 10.4493 175.546 10.5015 175.462 10.5369C175.378 10.5706 175.289 10.5879 175.199 10.588H164.274C164.187 10.5912 164.102 10.6116 164.023 10.6481C163.868 10.7322 163.741 10.8596 163.658 11.0146C163.618 11.0932 163.597 11.1793 163.594 11.267V22.7416C163.594 22.8334 163.613 22.9244 163.649 23.009C163.688 23.0921 163.744 23.1659 163.815 23.2253C163.936 23.3485 164.1 23.4205 164.274 23.4266H175.205C175.299 23.4335 175.39 23.4591 175.474 23.5017C175.556 23.5438 175.63 23.6009 175.691 23.67C175.809 23.8253 175.879 24.011 175.893 24.2048V33.2186C175.878 33.4114 175.808 33.5959 175.691 33.7504C175.63 33.8203 175.555 33.8774 175.471 33.9187C175.388 33.9607 175.298 33.9853 175.205 33.9908H140.424C140.334 33.9942 140.245 33.9724 140.167 33.9277C140.089 33.8848 140.024 33.8214 139.98 33.7444Z" fill="#F7F5F2"/>
<path id="Vector_3" d="M181.575 33.988C181.453 33.9901 181.332 33.9676 181.219 33.9219C181.105 33.877 181.002 33.8084 180.917 33.7206C180.83 33.6357 180.761 33.5336 180.715 33.4209C180.669 33.3081 180.648 33.1871 180.651 33.0656V0.9585C180.647 0.836923 180.67 0.715927 180.718 0.603942C180.763 0.49099 180.831 0.388319 180.917 0.302088C181.003 0.215857 181.106 0.147854 181.219 0.102179C181.331 0.0546831 181.453 0.0321363 181.575 0.0360869H207.71C209.407 0.0215325 211.073 0.483952 212.516 1.37013C213.965 2.24891 215.162 3.48447 215.991 4.95761C216.851 6.47425 217.295 8.18895 217.28 9.93022V24.1419C217.287 25.8484 216.853 27.528 216.018 29.0188C215.184 30.5096 213.978 31.7615 212.516 32.654C211.073 33.5406 209.407 34.0031 207.71 33.988H181.575ZM204.066 22.7719C204.289 22.7716 204.509 22.7265 204.713 22.6392C204.918 22.552 205.102 22.4243 205.256 22.2641C205.425 22.0928 205.557 21.8881 205.642 21.6632C205.73 21.4424 205.772 21.2064 205.766 20.9691V13.2773C205.772 13.0363 205.73 12.7965 205.642 12.5717C205.555 12.3468 205.423 12.1415 205.256 11.9673C205.107 11.7996 204.924 11.6655 204.719 11.5738C204.514 11.4821 204.291 11.4349 204.066 11.4355H193.086C192.965 11.4325 192.844 11.4539 192.73 11.4986C192.504 11.5946 192.324 11.7746 192.229 12.0004C192.183 12.1129 192.161 12.2335 192.163 12.3549V21.8705C192.161 21.9919 192.183 22.1125 192.229 22.225C192.274 22.3384 192.343 22.4409 192.431 22.5255C192.517 22.6129 192.62 22.6815 192.733 22.7268C192.846 22.7725 192.967 22.795 193.089 22.7929L204.066 22.7719Z" fill="#F7F5F2"/>
<path id="Vector_4" d="M97.0292 33.9909C96.9074 33.9914 96.7865 33.9689 96.673 33.9248C96.5022 33.8564 96.3563 33.7378 96.2549 33.5848C96.1535 33.4319 96.1014 33.2517 96.1054 33.0685V0.958392C96.1034 0.836965 96.1259 0.716354 96.1719 0.603833C96.2185 0.491985 96.2861 0.390011 96.3711 0.303374C96.4564 0.216317 96.559 0.147863 96.6723 0.102346C96.7856 0.0568294 96.9071 0.0352612 97.0292 0.0389862H125.407C127.345 0.0273563 129.25 0.53818 130.92 1.51724C132.592 2.47092 133.985 3.84205 134.962 5.49532C135.944 7.14348 136.457 9.02662 136.445 10.9427C136.454 12.8501 135.952 14.7254 134.99 16.375C136.548 18.2966 137.39 20.696 137.372 23.1653C137.384 25.076 136.874 26.954 135.895 28.5977C134.942 30.2282 133.578 31.5829 131.937 32.5277C130.282 33.4915 128.397 33.9939 126.479 33.9819L97.0292 33.9909ZM121.754 12.3578C122.791 12.3578 123.309 11.9852 123.309 11.2401C123.309 10.495 122.791 10.1234 121.754 10.1254H108.541C108.419 10.1233 108.297 10.1458 108.184 10.1915C108.071 10.2368 107.968 10.3054 107.882 10.3928C107.795 10.478 107.726 10.5803 107.68 10.6933C107.635 10.8061 107.613 10.9265 107.614 11.0478V11.4354C107.613 11.5567 107.635 11.6771 107.68 11.79C107.725 11.9033 107.794 12.0058 107.882 12.0904C107.968 12.1779 108.071 12.2464 108.184 12.2917C108.297 12.3374 108.419 12.3599 108.541 12.3578H121.754ZM121.754 24.0457C122.79 24.0457 123.309 23.6761 123.309 22.931C123.309 22.1859 122.793 21.8163 121.754 21.8163H108.541C108.419 21.8133 108.298 21.8347 108.184 21.8794C107.958 21.9754 107.778 22.1554 107.683 22.3812C107.638 22.4951 107.616 22.6164 107.617 22.7387V23.1263C107.616 23.2476 107.639 23.3679 107.683 23.4808C107.729 23.594 107.798 23.6964 107.885 23.7813C107.971 23.8686 108.074 23.9381 108.187 23.9856C108.301 24.0303 108.422 24.0517 108.544 24.0487L121.754 24.0457Z" fill="#F7F5F2"/>
<path id="Vector_5" d="M232.272 22.189H221.911C221.816 22.189 221.721 22.2078 221.632 22.2444C221.544 22.2809 221.463 22.3346 221.396 22.4021C221.328 22.4697 221.275 22.5499 221.238 22.6381C221.202 22.7263 221.183 22.8207 221.184 22.9161V33.2609C221.184 33.4532 221.26 33.6377 221.397 33.774C221.533 33.9103 221.718 33.9872 221.911 33.988H232.272C232.466 33.9872 232.651 33.9103 232.787 33.774C232.923 33.6377 233 33.4532 233 33.2609V22.9161C233 22.8207 232.982 22.7263 232.945 22.6381C232.909 22.5499 232.856 22.4697 232.788 22.4021C232.72 22.3346 232.64 22.2809 232.552 22.2444C232.463 22.2078 232.368 22.189 232.272 22.189Z" fill="#F7F5F2"/>
<path id="Vector_6" d="M50.2384 0.252227C50.1786 0.183146 50.1044 0.127799 50.021 0.0899856C49.9368 0.0516945 49.8449 0.0331922 49.7523 0.0359051H30.4673C30.0778 0.0359051 29.8635 0.198152 29.8363 0.522648L25.3652 17.8351C25.332 17.9733 25.2777 18.0364 25.1962 18.0364C25.1147 18.0364 25.0422 17.9673 24.9758 17.8351L20.5711 0.537667C20.547 0.213171 20.3296 0.0509244 19.9402 0.0509244H9.78439C9.60316 0.0509226 9.42931 0.122364 9.30088 0.249623C9.17245 0.376882 9.09989 0.549598 9.09909 0.729966V8.41872C9.09909 8.51406 9.08018 8.60848 9.04343 8.69653C9.00667 8.78458 8.95281 8.86453 8.88492 8.93181C8.81704 8.99909 8.73648 9.05236 8.64786 9.08857C8.55924 9.12478 8.4643 9.14323 8.3685 9.14283H0.685265C0.503511 9.14283 0.329202 9.21469 0.200683 9.3426C0.0721634 9.4705 -4.36852e-05 9.64397 -4.36852e-05 9.82486V33.2277C-0.00268821 33.3302 0.0147474 33.4322 0.0512826 33.5281C0.0888494 33.6235 0.145315 33.7103 0.217321 33.7835C0.282695 33.853 0.361856 33.9083 0.449787 33.9458C0.537779 33.9825 0.632103 34.0019 0.727526 34.0029H11.0342C11.1221 33.999 11.2083 33.9776 11.2876 33.9399C11.367 33.9023 11.4379 33.8491 11.4961 33.7835C11.5691 33.7111 11.6257 33.624 11.6622 33.5281C11.7015 33.433 11.7191 33.3304 11.7135 33.2277V12.9857C11.7135 12.8235 11.786 12.7453 11.9158 12.7453C11.9747 12.7405 12.0333 12.7588 12.0788 12.7964C12.1235 12.8349 12.1525 12.8883 12.1603 12.9466L12.7913 15.3233C15.4781 25.1844 17.1134 31.2306 17.6971 33.462C17.7344 33.6002 17.82 33.7206 17.9386 33.8015C18.0487 33.8914 18.1857 33.9421 18.328 33.9458H32.0703C32.2184 33.9487 32.3624 33.8974 32.4749 33.8015C32.5825 33.7149 32.6588 33.5957 32.6922 33.462C33.2739 31.0584 34.7481 25.5429 37.115 16.9157L38.232 12.7453C38.2367 12.7161 38.248 12.6883 38.2652 12.6642C38.2807 12.6382 38.3025 12.6165 38.3286 12.6011C38.3531 12.585 38.381 12.5747 38.4101 12.5711C38.439 12.565 38.4688 12.565 38.4977 12.5711C38.6426 12.5711 38.7181 12.6552 38.7181 12.7904V33.2217C38.7123 33.4252 38.7834 33.6235 38.9173 33.7775C38.9857 33.8505 39.0691 33.9079 39.1619 33.9458C39.2546 33.9836 39.3545 34.0011 39.4547 33.9968H49.704C49.8073 34.003 49.9106 33.9855 50.0059 33.9458C50.0999 33.9101 50.1838 33.8524 50.2505 33.7775C50.3863 33.6245 50.4586 33.4258 50.4528 33.2217V0.772035C50.4512 0.57776 50.3745 0.391546 50.2384 0.252227Z" fill="#FF3FF7"/>
</g>
<defs>
<clipPath id="clip0_1384_1874">
<rect width="233" height="34" fill="white"/>
</clipPath>
</defs>
</svg>
