<svg width="176" height="40" viewBox="0 0 176 40" fill="none" xmlns="http://www.w3.org/2000/svg">
<path d="M58.8357 30.0632C57.5471 30.0632 56.2586 29.8785 55.2462 29.4165C54.1417 28.9546 53.2213 28.3079 52.485 27.4765C51.7487 26.645 51.1045 25.5364 50.6443 24.3354C50.1841 23.1344 50 21.6562 50 20.0857C50 18.5152 50.1841 17.1294 50.6443 15.9284C51.1045 14.7274 51.6567 13.7112 52.485 12.8797C53.2213 12.0483 54.1417 11.4016 55.2462 10.9397C56.3506 10.4777 57.5471 10.293 58.8357 10.293C60.1242 10.293 61.3207 10.4777 62.4251 10.9397C63.5296 11.4016 64.45 12.0483 65.1863 12.8797C65.9226 13.7112 66.5668 14.7274 67.027 15.9284C67.4872 17.1294 67.6713 18.5152 67.6713 20.0857C67.6713 21.6562 67.4872 23.042 67.027 24.3354C66.5668 25.5364 66.0146 26.645 65.1863 27.4765C64.45 28.3079 63.5296 28.9546 62.4251 29.4165C61.3207 29.8785 60.1242 30.0632 58.8357 30.0632ZM58.8357 25.7212C60.0321 25.7212 60.8605 25.2592 61.5048 24.243C62.149 23.2268 62.5172 21.841 62.5172 20.0857C62.5172 18.3304 62.149 17.037 61.5048 16.0208C60.8605 15.097 59.9401 14.635 58.8357 14.635C57.6392 14.635 56.8108 15.097 56.1665 16.0208C55.5223 16.9446 55.1541 18.3304 55.1541 20.0857C55.1541 21.841 55.5223 23.2268 56.1665 24.243C56.8108 25.2592 57.6392 25.7212 58.8357 25.7212Z" fill="#333333"/>
<path d="M89.1163 13.1573C88.8402 13.0649 88.6561 12.9725 88.38 12.9725C88.1039 12.8801 87.9198 12.8801 87.6437 12.8801C87.1835 12.8801 86.8154 12.9725 86.5392 13.2497C86.2631 13.5268 86.1711 13.9888 86.1711 14.6354V15.005H88.6561V18.9775H86.1711V29.6941H81.109V18.9775H76.5071V29.6941H71.445V18.9775H69.5122V15.1898L71.445 15.005V14.8202C71.445 14.0811 71.537 13.3421 71.7211 12.6954C71.9052 12.0487 72.2733 11.402 72.7335 10.8477C73.1937 10.2934 73.838 9.92384 74.5743 9.64669C75.3106 9.36954 76.231 9.18477 77.3354 9.18477C77.9797 9.18477 78.624 9.27715 79.1762 9.36954C79.7284 9.46192 80.1886 9.55431 80.4647 9.73907L79.5444 13.4345C79.3603 13.3421 79.0842 13.2497 78.9001 13.2497C78.624 13.1573 78.3479 13.1573 77.9797 13.1573C77.6115 13.1573 77.2434 13.2497 76.8752 13.5268C76.5991 13.804 76.4151 14.1735 76.4151 14.8202V15.0974H81.017V14.9126C81.017 14.1735 81.109 13.3421 81.2931 12.6954C81.4772 11.9563 81.8453 11.3096 82.3055 10.7553C82.7657 10.201 83.3179 9.73908 84.0542 9.46192C84.7905 9.18477 85.7109 9 86.8154 9C87.4596 9 88.1039 9.09238 88.6561 9.18477C89.2083 9.27715 89.5765 9.46192 89.9446 9.55431L89.1163 13.1573Z" fill="#333333"/>
<path d="M97.3076 30.0639C96.2032 30.0639 95.2828 29.8792 94.3624 29.5096C93.442 29.1401 92.6137 28.6782 91.9694 28.0315C91.3252 27.3848 90.7729 26.5533 90.4048 25.6295C90.0366 24.7056 89.8525 23.597 89.8525 22.396C89.8525 21.195 90.0366 20.0864 90.4968 19.1626C90.865 18.2387 91.4172 17.4073 92.0615 16.7606C92.7057 16.1139 93.442 15.5596 94.2704 15.19C95.0987 14.8205 96.0191 14.6357 96.8474 14.6357C97.9519 14.6357 98.8723 14.8205 99.7006 15.19C100.529 15.5596 101.173 16.1139 101.725 16.7606C102.278 17.4073 102.646 18.1463 102.922 18.9778C103.198 19.8093 103.29 20.7331 103.29 21.7493C103.29 22.2113 103.29 22.5808 103.198 23.0427C103.106 23.4123 103.106 23.6894 103.106 23.8742H94.7306C95.0067 24.798 95.3748 25.3523 96.0191 25.7219C96.6634 26.0914 97.3076 26.2762 98.136 26.2762C98.6882 26.2762 99.1484 26.1838 99.6086 26.0914C100.069 25.9066 100.621 25.7219 101.081 25.4447L102.738 28.401C101.91 28.9553 101.081 29.4172 100.069 29.6944C98.9643 29.9715 98.136 30.0639 97.3076 30.0639ZM98.8723 20.6407C98.8723 20.0864 98.6882 19.6245 98.4121 19.1626C98.136 18.7007 97.5837 18.5159 96.8474 18.5159C96.2952 18.5159 95.835 18.7007 95.3748 18.9778C94.9146 19.3473 94.6385 19.8093 94.5465 20.5483H98.8723V20.6407Z" fill="#333333"/>
<path d="M105.867 15.0053H110.009L110.377 17.4997H110.469C111.021 16.4834 111.666 15.7444 112.402 15.2824C113.138 14.8205 113.874 14.6357 114.611 14.6357C115.071 14.6357 115.439 14.6357 115.715 14.7281C115.991 14.8205 116.267 14.8205 116.452 14.9129L115.623 19.255C115.347 19.1626 115.071 19.1626 114.887 19.0702C114.611 18.9778 114.335 18.9778 114.059 18.9778C113.506 18.9778 112.954 19.1626 112.402 19.5321C111.85 19.9017 111.389 20.5483 111.021 21.4722V29.6944H105.959V15.0053H105.867Z" fill="#333333"/>
<path d="M127.312 30.0632C126.024 30.0632 124.735 29.8785 123.539 29.4165C122.342 29.047 121.33 28.4003 120.501 27.5688C119.673 26.7374 118.937 25.7212 118.477 24.5202C118.016 23.3192 117.74 21.841 117.74 20.2705C117.74 18.6999 118.016 17.2218 118.477 16.0208C119.029 14.8198 119.673 13.7112 120.501 12.8797C121.33 12.0483 122.342 11.4016 123.539 10.9397C124.735 10.4777 125.932 10.293 127.128 10.293C128.509 10.293 129.705 10.5701 130.81 11.032C131.822 11.494 132.65 12.1407 133.387 12.7873L130.718 16.0208C130.257 15.6513 129.797 15.2817 129.245 15.0046C128.693 14.7274 128.048 14.635 127.312 14.635C126.668 14.635 126.116 14.7274 125.563 15.0046C125.011 15.2817 124.551 15.6513 124.091 16.1132C123.723 16.5751 123.355 17.1294 123.17 17.8685C122.986 18.5152 122.802 19.3466 122.802 20.1781C122.802 22.0258 123.17 23.3192 123.999 24.3354C124.827 25.2592 126.024 25.8135 127.772 25.8135C128.048 25.8135 128.325 25.8135 128.601 25.7212C128.877 25.6288 129.061 25.5364 129.245 25.444V22.7649H126.392V18.6076H133.663V27.7536C133.019 28.4003 132.098 28.9546 130.902 29.4165C129.889 29.8785 128.693 30.0632 127.312 30.0632Z" fill="#00BA00"/>
<path d="M140.841 30.0641C140.197 30.0641 139.553 29.9717 139.001 29.6946C138.448 29.4174 137.988 29.1403 137.62 28.6784C137.252 28.3088 136.976 27.7545 136.792 27.2002C136.608 26.6459 136.516 26.0916 136.516 25.4449C136.516 23.8744 137.16 22.6734 138.356 21.8419C139.645 21.0105 141.67 20.3638 144.431 20.0866C144.339 19.0704 143.603 18.5161 142.406 18.5161C141.854 18.5161 141.302 18.6085 140.749 18.7932C140.197 18.978 139.461 19.3475 138.725 19.7171L136.976 16.3912C137.988 15.7446 139.093 15.2826 140.105 14.9131C141.118 14.5436 142.222 14.4512 143.418 14.4512C145.351 14.4512 146.824 15.0055 147.836 16.1141C148.941 17.2227 149.493 18.978 149.493 21.38V29.6946H145.351L144.983 28.3088H144.891C144.339 28.8631 143.695 29.2327 143.05 29.6022C142.406 29.8794 141.67 30.0641 140.841 30.0641ZM142.59 26.184C142.958 26.184 143.326 26.0916 143.603 25.9068C143.879 25.7221 144.155 25.4449 144.431 25.1678V23.2277C143.234 23.4125 142.406 23.6896 141.946 24.0591C141.486 24.4287 141.302 24.7982 141.302 25.1678C141.21 25.8145 141.67 26.184 142.59 26.184Z" fill="#00BA00"/>
<path d="M158.145 30.0638C157.224 30.0638 156.396 29.879 155.66 29.6019C155.015 29.3247 154.463 28.9552 154.003 28.4009C153.543 27.8466 153.267 27.1999 153.082 26.4608C152.898 25.7217 152.806 24.8903 152.806 23.9664V18.8853H150.874V15.0975L153.082 14.9128L153.635 11.125H157.776V14.9128H161.09V18.8853H157.776V23.874C157.776 24.7055 157.96 25.2598 158.329 25.537C158.697 25.8141 159.065 25.9989 159.525 25.9989C159.801 25.9989 159.985 25.9989 160.169 25.9065C160.353 25.8141 160.63 25.8141 160.814 25.7217L161.55 29.3247C161.182 29.4171 160.722 29.6019 160.169 29.6943C159.709 29.9714 158.973 30.0638 158.145 30.0638Z" fill="#00BA00"/>
<path d="M170.018 30.0639C168.913 30.0639 167.993 29.8792 167.072 29.5096C166.152 29.1401 165.324 28.6782 164.679 28.0315C164.035 27.3848 163.483 26.5533 163.115 25.6295C162.747 24.7056 162.562 23.597 162.562 22.396C162.562 21.195 162.747 20.0864 163.207 19.1626C163.575 18.2387 164.127 17.4073 164.771 16.7606C165.416 16.1139 166.152 15.5596 166.98 15.19C167.809 14.8205 168.729 14.6357 169.557 14.6357C170.662 14.6357 171.582 14.8205 172.411 15.19C173.239 15.5596 173.883 16.1139 174.435 16.7606C174.988 17.4073 175.356 18.1463 175.632 18.9778C175.908 19.8093 176 20.7331 176 21.7493C176 22.2113 176 22.5808 175.908 23.0427C175.816 23.4123 175.816 23.6894 175.816 23.8742H167.441C167.717 24.798 168.085 25.3523 168.729 25.7219C169.373 26.0914 170.018 26.2762 170.846 26.2762C171.398 26.2762 171.858 26.1838 172.319 26.0914C172.779 25.9066 173.331 25.7219 173.791 25.4447L175.448 28.401C174.619 28.9553 173.791 29.4172 172.779 29.6944C171.766 29.9715 170.846 30.0639 170.018 30.0639ZM171.674 20.6407C171.674 20.0864 171.49 19.6245 171.214 19.1626C170.938 18.7007 170.386 18.5159 169.649 18.5159C169.097 18.5159 168.637 18.7007 168.177 18.9778C167.717 19.3473 167.441 19.8093 167.348 20.5483H171.674V20.6407Z" fill="#00BA00"/>
<path d="M39.9999 20C39.9999 9.1 31.1999 0.2 20.2999 0C20.1999 0 19.9999 0 19.9999 0C17.4999 0.1 15.3999 2.1 15.3999 4.7C15.3999 7.3 17.2999 9.4 19.8999 9.4C19.8999 9.4 20.0999 9.4 20.1999 9.4C25.9999 9.5 30.5999 14.2 30.5999 20C30.5999 25.8 25.9999 30.5 20.1999 30.6C20.0999 30.6 19.9999 30.6 19.9999 30.6C17.3999 30.6 15.3999 32.7 15.3999 35.3C15.3999 37.8 17.3999 39.9 19.9999 40H20.2999C31.1999 39.8 39.9999 30.9 39.9999 20Z" fill="url(#paint0_linear_406_2879)"/>
<path d="M19.9 30.6H19.8C14 30.5 9.39999 25.8 9.39999 20C9.39999 14.2 14 9.4 19.8 9.4C19.8 9.4 19.9 9.4 20 9.4C17.6 9.2 15.5 7.3 15.5 4.7C15.5 2.2 17.5 0.1 20.1 0H19.8C8.79999 0.2 0 9.1 0 20C0 30.9 8.8 39.8 19.7 40C19.8 40 20 40 20 40C22.5 39.9 24.6 37.9 24.6 35.3C24.6 32.7 22.5 30.6 19.9 30.6Z" fill="url(#paint1_linear_406_2879)"/>
<defs>
<linearGradient id="paint0_linear_406_2879" x1="21.8422" y1="31.7653" x2="30.636" y2="3.97857" gradientUnits="userSpaceOnUse">
<stop offset="0.0230769" stop-color="#2C9050"/>
<stop offset="0.3428" stop-color="#00BA38"/>
<stop offset="1" stop-color="#92DC52"/>
</linearGradient>
<linearGradient id="paint1_linear_406_2879" x1="9.34809" y1="11.3131" x2="22.1955" y2="35.3838" gradientUnits="userSpaceOnUse">
<stop stop-color="#2C9050"/>
<stop offset="0.3217" stop-color="#00BA38"/>
<stop offset="1" stop-color="#92DC52"/>
</linearGradient>
</defs>
</svg>
