<svg width="366" height="90" viewBox="0 0 366 90" fill="none" xmlns="http://www.w3.org/2000/svg">
<g clip-path="url(#clip0_541_801)">
<path d="M87.07 18.93L71.07 2.93C69.195 1.055 66.65 0 63.995 0H26.005C23.35 0 20.805 1.055 18.93 2.93L2.93 18.93C1.055 20.805 0 23.35 0 26V63.995C0 66.645 1.055 69.19 2.93 71.065L18.935 87.07C20.81 88.945 23.355 90 26.005 90H64C66.65 90 69.195 88.945 71.07 87.07L87.075 71.065C88.95 69.19 90.005 66.645 90.005 63.995V26.005C90.005 23.355 88.95 20.81 87.075 18.935L87.07 18.93ZM80 63.875L63.875 80H26.13L10 63.875V26.13L26.13 10H63.875L80 26.13V63.875Z" fill="#E91B8A"/>
<path d="M67.5 40H52.5C51.1193 40 50 41.1193 50 42.5V47.5C50 48.8807 51.1193 50 52.5 50H67.5C68.8807 50 70 48.8807 70 47.5V42.5C70 41.1193 68.8807 40 67.5 40Z" fill="white"/>
<path d="M38.805 47.165L23.75 55.86C22.085 56.82 20 55.62 20 53.695V36.31C20 34.385 22.085 33.185 23.75 34.145L38.805 42.84C40.47 43.8 40.47 46.21 38.805 47.17V47.165Z" fill="white"/>
<path d="M130 40H153V50H130C124.675 50 120 57.01 120 65C120 72.99 124.675 80 130 80H153V90H130C118.955 90 110 78.805 110 65C110 51.195 118.955 40 130 40ZM186.125 40C180.665 40 176.015 43.345 174.275 48.52L160.345 90H170.895L183.755 51.705C184.27 50.165 185.585 50 186.125 50C186.665 50 187.98 50.165 188.495 51.705L201.36 90H211.91L197.98 48.52C196.24 43.345 191.59 40 186.13 40H186.125ZM247.5 40H219.5V50H247.325C249.985 50 252.31 52.005 252.49 54.655C252.685 57.565 250.37 60 247.5 60H229.5C223.975 60 219.5 64.475 219.5 70V90H229.5V72.5C229.5 71.12 230.62 70 232 70H245.14L251.855 90H262.405L255.01 67.98C259.485 65.385 262.5 60.545 262.5 55C262.5 46.715 255.785 40 247.5 40ZM315.5 65C315.5 78.805 306.545 90 295.5 90H277.5C274.74 90 272.5 87.76 272.5 85V45C272.5 42.24 274.74 40 277.5 40H295.5C306.545 40 315.5 51.195 315.5 65ZM305.5 65C305.5 57.01 300.825 50 295.5 50H282.5V80H295.5C300.825 80 305.5 72.99 305.5 65ZM338 50H366V40H338C329.715 40 323 46.715 323 55C323 63.285 329.715 70 338 70H351C353.755 70 356 72.245 356 75C356 77.755 353.755 80 351 80H323V90H351C359.285 90 366 83.285 366 75C366 66.715 359.285 60 351 60H338C335.245 60 333 57.755 333 55C333 52.245 335.245 50 338 50Z" fill="url(#paint0_linear_541_801)"/>
<path d="M220.5 1.41319e-05H232.5V5.00001H220.5V30H215.5V5.00001H203.5V1.41319e-05H220.5ZM237.5 1.41319e-05V30H242.5V1.41319e-05H237.5ZM173 15.5C173 20.74 168.74 25 163.5 25C158.26 25 154 20.74 154 15.5V1.41319e-05H149V15.5C149 23.495 155.505 30 163.5 30C171.495 30 178 23.495 178 15.5V1.41319e-05H173V15.5ZM142.135 0.0800141C141.035 -0.209986 139.88 0.280014 139.325 1.27001L127.105 22.94L114.67 1.25501C114.105 0.270014 112.95 -0.209986 111.86 0.0850141C110.765 0.375014 110.005 1.37001 110.005 2.50001V30H115.005V11.885L124.955 29.24C125.4 30.015 126.23 30.495 127.125 30.495H127.135C128.035 30.495 128.86 30.005 129.305 29.225L139.01 12.02V30.495H144.01V2.50001C144.01 1.36501 143.245 0.370014 142.145 0.0800141H142.135ZM188 1.41319e-05H183V26C183 28.21 184.79 30 187 30H210.5V25H188V1.41319e-05Z" fill="white"/>
</g>
<defs>
<linearGradient id="paint0_linear_541_801" x1="110" y1="65" x2="366" y2="65" gradientUnits="userSpaceOnUse">
<stop stop-color="#ED1A8A"/>
<stop offset="1" stop-color="#674DCD"/>
</linearGradient>
<clipPath id="clip0_541_801">
<rect width="366" height="90" fill="white"/>
</clipPath>
</defs>
</svg>
