<svg
  width="119"
  height="119"
  viewBox="0 0 119 119"
  fill="none"
  xmlns="http://www.w3.org/2000/svg"
>
  <g clip-path="url(#clip0_1_41)">
    <path
      d="M73.4602 85.9124L83.4882 31.7529L48.6299 66.6257L73.4602 85.9124Z"
      fill="#D39ED6"
    />
    <path
      d="M44.9882 66.8431C44.9592 66.4222 45.1188 66.0159 45.4091 65.7257L77.9599 33.1748L25.5273 56.1911L41.4617 62.5475C41.9261 62.7361 42.2599 63.128 42.347 63.6214L45.9025 81.7907L55.0597 75.2892L45.5397 67.888C45.2059 67.6268 45.0027 67.2494 44.9882 66.8286V66.8431Z"
      fill="#D39ED6"
    />
    <path
      d="M59.5 0C26.6444 0 0 26.6444 0 59.5C0 92.3556 26.6444 119 59.5 119C92.3556 119 119 92.3556 119 59.5C119 26.6444 92.3556 0 59.5 0ZM87.0442 28.502L75.8698 88.7856C75.7827 89.279 75.4344 89.6999 74.9555 89.874C74.7813 89.9321 74.6072 89.9756 74.4331 89.9756C74.1138 89.9756 73.7945 89.874 73.5478 89.6709L57.4538 77.1613L45.7424 85.4623C45.3361 85.7526 44.8282 85.8106 44.3638 85.622C43.8994 85.4333 43.5801 85.0415 43.4785 84.548L39.6328 64.9421L21.2168 57.5989C20.6654 57.3812 20.3171 56.8588 20.3026 56.2783C20.3026 55.6978 20.6363 55.1609 21.1733 54.9287L85.027 26.9056C85.5204 26.6879 86.0863 26.7605 86.5072 27.0943C86.9281 27.428 87.1312 27.965 87.0296 28.502H87.0442Z"
      fill="url(#paint0_linear_1_41)"
      fill-opacity="0.37"
      style="mix-blend-mode: color-dodge"
    />
  </g>
  <defs>
    <linearGradient
      id="paint0_linear_1_41"
      x1="29.75"
      y1="7.9672"
      x2="89.25"
      y2="111.033"
      gradientUnits="userSpaceOnUse"
    >
      <stop stop-color="#FACF88" />
      <stop offset="0.31" stop-color="#9F4894" />
      <stop offset="0.48" stop-color="#8E378B" />
      <stop offset="1" stop-color="#E992BC" />
    </linearGradient>
    <clipPath id="clip0_1_41">
      <rect width="119" height="119" fill="white" />
    </clipPath>
  </defs>
</svg>
