<svg
  width="119"
  height="119"
  viewBox="0 0 119 119"
  fill="none"
  xmlns="http://www.w3.org/2000/svg"
>
  <g clip-path="url(#clip0_1_17)">
    <path
      d="M54.5977 65.1968L66.4168 58.8315L54.5977 52.3633V65.1968Z"
      fill="#D39ED6"
    />
    <path
      d="M59.5074 0C26.696 0 0 26.696 0 59.5074C0 92.3187 26.696 119.015 59.5074 119.015C92.3187 119.015 119 92.3187 119 59.5074C119 26.696 92.304 0 59.5074 0ZM95.3176 62.2269C95.3176 67.9601 94.8178 73.6639 94.7884 73.9138V73.9873C94.7149 74.5459 94.024 79.5734 91.6425 82.146C88.7906 85.2772 85.5859 85.6153 84.0424 85.7917C83.8954 85.8064 83.7631 85.8211 83.6455 85.8358H83.5132C74.0461 86.5415 59.7426 86.6297 59.6103 86.6297H59.5956H59.5809C58.8605 86.6297 41.7198 86.3651 36.2513 85.8358L36.0896 85.8064C35.9132 85.777 35.6632 85.7476 35.3839 85.7182C33.5464 85.5124 30.1212 85.1155 27.4016 82.146C24.9172 79.5441 24.3145 74.5018 24.2557 73.9432V73.9138C24.2263 73.6786 23.7265 67.9601 23.7265 62.2269V56.8613C23.7265 51.1281 24.2263 45.4243 24.2557 45.1744V45.1009C24.3292 44.5423 25.0201 39.5148 27.4016 36.9422C30.2976 33.7669 33.517 33.3847 35.0752 33.2083C35.1928 33.2083 35.3104 33.1789 35.4133 33.1642H35.5456C45.1009 32.4586 59.3897 32.3704 59.5368 32.3704C59.6838 32.3704 73.9726 32.4586 83.4397 33.1495H83.572C83.6749 33.1789 83.7925 33.1936 83.9248 33.2083C85.4977 33.3847 88.7612 33.7669 91.6425 36.8246C94.1416 39.4266 94.7443 44.557 94.8031 45.1303V45.1597C94.8325 45.3949 95.3323 51.1134 95.3323 56.8466V62.2122L95.3176 62.2269Z"
      fill="url(#paint0_linear_1_17)"
      fill-opacity="0.37"
      style="mix-blend-mode: color-dodge"
    />
    <path
      d="M88.5847 39.7348H88.57C86.7471 37.765 84.7479 37.5444 83.4249 37.3827C83.2925 37.368 83.1749 37.3533 83.0573 37.3386C73.8549 36.6771 59.9924 36.5742 59.5072 36.5742C59.0074 36.5742 45.1596 36.6771 35.8689 37.3386C35.766 37.3386 35.6484 37.368 35.5308 37.3827C34.2519 37.5297 32.3114 37.7503 30.4739 39.7789C29.3714 40.9843 28.6216 43.9685 28.4158 45.6003C28.3717 46.1148 27.916 51.5687 27.916 56.8755V62.2412C27.916 67.6215 28.3864 73.1489 28.4305 73.5311C28.6069 75.1335 29.3126 78.1029 30.4445 79.279L30.4886 79.3231C32.135 81.1459 34.2813 81.3811 35.8542 81.5575C36.163 81.5869 36.457 81.631 36.7216 81.6751C42.0137 82.1603 58.9045 82.4249 59.6248 82.4396C60.257 82.4396 74.0166 82.3367 83.1749 81.6751C83.3072 81.6604 83.4542 81.6457 83.616 81.631C84.9537 81.484 86.7912 81.2929 88.57 79.3378C89.7313 78.0735 90.4517 74.9129 90.6281 73.5311C90.6722 73.0313 91.1279 67.5627 91.1279 62.2559V56.8902C91.1279 51.4952 90.6575 45.9531 90.6134 45.6003C90.437 43.9685 89.7313 40.9402 88.5994 39.7642L88.5847 39.7348ZM70.5032 61.4032L54.6855 69.9148C54.2445 70.15 53.7741 70.2676 53.3037 70.2676C52.7891 70.2676 52.2746 70.1353 51.8189 69.856C50.9369 69.3268 50.4077 68.4007 50.4077 67.3569V50.1868C50.4077 49.1431 50.9369 48.217 51.8336 47.6877C52.7303 47.1585 53.8035 47.1438 54.7149 47.6436L70.5326 56.3022C71.4734 56.8167 72.0467 57.8016 72.0467 58.8601C72.0467 59.9332 71.4587 60.9034 70.5179 61.4032H70.5032Z"
      fill="#D39ED6"
    />
  </g>
  <defs>
    <linearGradient
      id="paint0_linear_1_17"
      x1="89.2463"
      y1="111.018"
      x2="29.7537"
      y2="7.98234"
      gradientUnits="userSpaceOnUse"
    >
      <stop stop-color="#E992BC" />
      <stop offset="0.76" stop-color="#8E378B" />
      <stop offset="1" stop-color="#FACF88" />
    </linearGradient>
    <clipPath id="clip0_1_17">
      <rect width="119" height="119" fill="white" />
    </clipPath>
  </defs>
</svg>
