<svg width="934" height="193" viewBox="0 0 934 193" fill="none" xmlns="http://www.w3.org/2000/svg">
<g clip-path="url(#clip0_3384_1726)">
<path d="M160.958 6H18.8241C11.7416 6 6 11.7416 6 18.8241V127.127C6 134.21 11.7345 139.952 18.817 139.952H48.7471C74.3954 139.952 101.112 168.973 109.662 185.538C111.799 188.21 114.471 186.607 114.471 185.538V148.491C114.471 143.769 118.299 139.952 123.02 139.952H160.958C168.041 139.952 173.782 134.21 173.782 127.127V18.8241C173.782 11.7416 168.041 6 160.958 6Z" stroke="white" stroke-width="9.53147"/>
<path d="M109.128 64.2461H146.532C147.122 64.2461 147.601 64.7246 147.601 65.3148V76.0015C147.601 83.6743 141.381 89.8944 133.708 89.8944H123.021C115.348 89.8944 109.128 83.6743 109.128 76.0016V64.2461ZM109.128 64.2461H71.1903M71.1903 64.2461H33.2523C32.6621 64.2461 32.1836 64.7246 32.1836 65.3148V76.0015C32.1836 83.6743 38.4036 89.8944 46.0764 89.8944H57.2975C64.9703 89.8944 71.1903 83.6743 71.1903 76.0016V64.2461Z" stroke="white" stroke-width="9.53147"/>
<path d="M256.788 48.9188H315.028V111.639H302.484V59.6708H269.332V111.639H256.788V48.9188ZM378.672 111.639L371.504 95.0627H341.936L334.768 111.639H320.88L348.656 48.9188H364.784L392.56 111.639H378.672ZM356.72 61.4628L346.864 84.3107H366.576L356.72 61.4628ZM444.51 92.8227H410.91V111.639H398.366V48.9188H444.51L456.158 59.6708V82.0707L444.51 92.8227ZM443.614 64.1508L438.686 59.6708H410.91V82.0707H438.686L443.614 77.5907V64.1508ZM496.065 111.639H483.521V59.6708H460.225V48.9188H519.361V59.6708H496.065V111.639ZM539.538 85.6547V111.639H526.994V48.9188H539.538V74.9027H572.69V48.9188H585.234V111.639H572.69V85.6547H539.538ZM598.702 48.9188H652.462V59.6708H611.246V74.9027H642.606V85.6547H611.246V100.887H653.358V111.639H598.702V48.9188ZM708.504 92.8227H674.904V111.639H662.36V48.9188H708.504L720.152 59.6708V82.0707L708.504 92.8227ZM707.608 64.1508L702.68 59.6708H674.904V82.0707H702.68L707.608 77.5907V64.1508ZM742.587 85.6547V111.639H730.043V48.9188H742.587V74.9027H753.339L772.603 48.9188H787.835L764.987 79.3827L789.627 111.639H774.395L754.683 85.6547H742.587ZM842.043 111.639V68.6308L807.099 111.639H795.451V48.9188H807.995V91.9267L842.939 48.9188H854.587V111.639H842.043ZM880.578 85.6547V111.639H868.034V48.9188H880.578V74.9027H913.729V48.9188H926.273V111.639H913.729V85.6547H880.578Z" fill="white"/>
</g>
<defs>
<clipPath id="clip0_3384_1726">
<rect width="934" height="193" fill="white"/>
</clipPath>
</defs>
</svg>
