<svg fill="#7f8fa4" height="24" viewBox="0 0 24 24" width="24" xmlns="http://www.w3.org/2000/svg"><g clip-rule="evenodd" fill-rule="evenodd"><path d="m11.3353 17.3292c.3705.1852.5207.6357.3354 1.0062l-1.5 3c-.1852.3705-.63571.5207-1.00619.3354-.37048-.1852-.52065-.6357-.33541-1.0062l1.5-3c.1852-.3705.6357-.5207 1.0062-.3354z" fill="#7f8fa4"/><path d="m14.8353 21.6708c.3705-.1852.5207-.6357.3354-1.0062l-1.5-3c-.1852-.3705-.6357-.5207-1.0062-.3354-.3705.1852-.5206.6357-.3354 1.0062l1.5 3c.1852.3705.6357.5207 1.0062.3354z" fill="#7f8fa4"/><path d="m6.25 21c0-.4142.33579-.75.75-.75h10c.4142 0 .75.3358.75.75s-.3358.75-.75.75h-10c-.41421 0-.75-.3358-.75-.75z" fill="#7f8fa4"/></g><path d="m4 3.25c-1.51878 0-2.75 1.23122-2.75 2.75v10c0 1.5188 1.23122 2.75 2.75 2.75h16c1.5188 0 2.75-1.2312 2.75-2.75v-10c0-1.51878-1.2312-2.75-2.75-2.75z" fill="#fff"/><path clip-rule="evenodd" d="m1.25 6c0-1.51878 1.23122-2.75 2.75-2.75h16c1.5188 0 2.75 1.23122 2.75 2.75v10c0 1.5188-1.2312 2.75-2.75 2.75h-16c-1.51878 0-2.75-1.2312-2.75-2.75zm2.75-1.25c-.69036 0-1.25.55964-1.25 1.25v10c0 .6904.55964 1.25 1.25 1.25h16c.6904 0 1.25-.5596 1.25-1.25v-10c0-.69036-.5596-1.25-1.25-1.25z" fill="#7f8fa4" fill-rule="evenodd"/><path clip-rule="evenodd" d="m4 3.25c-1.51878 0-2.75 1.23122-2.75 2.75v10c0 1.5188 1.23122 2.75 2.75 2.75h5.78647l-.75 1.5h-2.03647c-.41421 0-.75.3358-.75.75s.33579.75.75.75h2.48376c.01045.0002.0209.0002.03132 0h4.96982c.0104.0002.0209.0002.0313 0h2.4838c.4142 0 .75-.3358.75-.75s-.3358-.75-.75-.75h-2.0365l-.75-1.5h5.7865c1.5188 0 2.75-1.2312 2.75-2.75v-10c0-1.51878-1.2312-2.75-2.75-2.75zm9.2865 17-.75-1.5h-1.073l-.75 1.5zm-.3027-3c.0104-.0002.0209-.0002.0313 0h6.9849c.6904 0 1.25-.5596 1.25-1.25v-10c0-.69036-.5596-1.25-1.25-1.25h-16c-.69036 0-1.25.55964-1.25 1.25v10c0 .6904.55964 1.25 1.25 1.25h6.9849c.0104-.0002.0209-.0002.0313 0z" fill="#7f8fa4" fill-rule="evenodd"/></svg>